<?xml version="1.0" encoding="UTF-8" standalone="no"?>
<!-- Created with Inkscape (http://www.inkscape.org/) -->

<svg
   xmlns:ns1="http://www.iki.fi/pav/software/textext/"
   xmlns:dc="http://purl.org/dc/elements/1.1/"
   xmlns:cc="http://creativecommons.org/ns#"
   xmlns:rdf="http://www.w3.org/1999/02/22-rdf-syntax-ns#"
   xmlns:svg="http://www.w3.org/2000/svg"
   xmlns="http://www.w3.org/2000/svg"
   xmlns:sodipodi="http://sodipodi.sourceforge.net/DTD/sodipodi-0.dtd"
   xmlns:inkscape="http://www.inkscape.org/namespaces/inkscape"
   width="210mm"
   height="297mm"
   viewBox="0 0 210 297"
   version="1.1"
   id="svg1517"
   inkscape:version="0.92.2 (5c3e80d, 2017-08-06)"
   sodipodi:docname="attractor-network.svg">
  <sodipodi:namedview
     id="base"
     pagecolor="#ffffff"
     bordercolor="#666666"
     borderopacity="1.0"
     inkscape:pageopacity="0.0"
     inkscape:pageshadow="2"
     inkscape:zoom="1.4"
     inkscape:cx="102.69737"
     inkscape:cy="774.43303"
     inkscape:document-units="mm"
     inkscape:current-layer="layer1"
     showgrid="false"
     inkscape:window-width="1169"
     inkscape:window-height="1168"
     inkscape:window-x="742"
     inkscape:window-y="0"
     inkscape:window-maximized="0" />
  <defs
     id="defs1511">
    <clipPath
       id="clipPath5257"
       clipPathUnits="userSpaceOnUse">
      <path
         inkscape:connector-curvature="0"
         id="path5255"
         d="M 72.49,98.73 H 705.83 V 547.65 H 72.49 Z" />
    </clipPath>
    <clipPath
       id="clipPath4050"
       clipPathUnits="userSpaceOnUse">
      <path
         inkscape:connector-curvature="0"
         id="path4048"
         d="M 52.64,50.2 H 705.83 V 547.65 H 52.64 Z" />
    </clipPath>
    <marker
       inkscape:isstock="true"
       style="overflow:visible"
       id="TriangleOutS-4-4"
       refX="0"
       refY="0"
       orient="auto"
       inkscape:stockid="TriangleOutS">
      <path
         transform="scale(0.2)"
         style="fill:#800000;fill-opacity:1;fill-rule:evenodd;stroke:#800000;stroke-width:1.00000003pt;stroke-opacity:1"
         d="M 5.77,0 -2.88,5 V -5 Z"
         id="path2365-9-5"
         inkscape:connector-curvature="0" />
    </marker>
    <marker
       inkscape:isstock="true"
       style="overflow:visible"
       id="TriangleOutS-4"
       refX="0"
       refY="0"
       orient="auto"
       inkscape:stockid="TriangleOutS">
      <path
         transform="scale(0.2)"
         style="fill:#000080;fill-opacity:1;fill-rule:evenodd;stroke:#000080;stroke-width:1.00000003pt;stroke-opacity:1"
         d="M 5.77,0 -2.88,5 V -5 Z"
         id="path2365-9"
         inkscape:connector-curvature="0" />
    </marker>
    <marker
       inkscape:isstock="true"
       style="overflow:visible"
       id="TriangleOutS-0"
       refX="0"
       refY="0"
       orient="auto"
       inkscape:stockid="TriangleOutS">
      <path
         transform="scale(0.2)"
         style="fill:#800000;fill-opacity:1;fill-rule:evenodd;stroke:#800000;stroke-width:1.00000003pt;stroke-opacity:1"
         d="M 5.77,0 -2.88,5 V -5 Z"
         id="path2365-0"
         inkscape:connector-curvature="0" />
    </marker>
    <marker
       inkscape:isstock="true"
       style="overflow:visible"
       id="TriangleOutS"
       refX="0"
       refY="0"
       orient="auto"
       inkscape:stockid="TriangleOutS">
      <path
         transform="scale(0.2)"
         style="fill:#000000;fill-opacity:1;fill-rule:evenodd;stroke:#000000;stroke-width:1.00000003pt;stroke-opacity:1"
         d="M 5.77,0 -2.88,5 V -5 Z"
         id="path2365"
         inkscape:connector-curvature="0" />
    </marker>
    <marker
       inkscape:isstock="true"
       style="overflow:visible"
       id="TriangleInL-6"
       refX="0"
       refY="0"
       orient="auto"
       inkscape:stockid="TriangleInL">
      <path
         transform="scale(-0.8)"
         style="fill:#800000;fill-opacity:1;fill-rule:evenodd;stroke:#800000;stroke-width:1.00000003pt;stroke-opacity:1"
         d="M 5.77,0 -2.88,5 V -5 Z"
         id="path2350-3"
         inkscape:connector-curvature="0" />
    </marker>
    <marker
       inkscape:collect="always"
       inkscape:isstock="true"
       style="overflow:visible"
       id="TriangleInL"
       refX="0"
       refY="0"
       orient="auto"
       inkscape:stockid="TriangleInL">
      <path
         transform="scale(-0.8)"
         style="fill:#000000;fill-opacity:1;fill-rule:evenodd;stroke:#000000;stroke-width:1.00000003pt;stroke-opacity:1"
         d="M 5.77,0 -2.88,5 V -5 Z"
         id="path2350"
         inkscape:connector-curvature="0" />
    </marker>
    <marker
       inkscape:stockid="DotL"
       orient="auto"
       refY="0"
       refX="0"
       id="marker3076"
       style="overflow:visible"
       inkscape:isstock="true">
      <path
         id="path3074"
         d="m -2.5,-1 c 0,2.76 -2.24,5 -5,5 -2.76,0 -5,-2.24 -5,-5 0,-2.76 2.24,-5 5,-5 2.76,0 5,2.24 5,5 z"
         style="fill:#800000;fill-opacity:1;fill-rule:evenodd;stroke:#800000;stroke-width:1.00000003pt;stroke-opacity:1"
         transform="matrix(0.8,0,0,0.8,5.92,0.8)"
         inkscape:connector-curvature="0" />
    </marker>
    <marker
       inkscape:collect="always"
       inkscape:isstock="true"
       style="overflow:visible"
       id="DotL"
       refX="0"
       refY="0"
       orient="auto"
       inkscape:stockid="DotL">
      <path
         transform="matrix(0.8,0,0,0.8,5.92,0.8)"
         style="fill:#000080;fill-opacity:1;fill-rule:evenodd;stroke:#000080;stroke-width:1.00000003pt;stroke-opacity:1"
         d="m -2.5,-1 c 0,2.76 -2.24,5 -5,5 -2.76,0 -5,-2.24 -5,-5 0,-2.76 2.24,-5 5,-5 2.76,0 5,2.24 5,5 z"
         id="path2275"
         inkscape:connector-curvature="0" />
    </marker>
    <marker
       inkscape:isstock="true"
       style="overflow:visible"
       id="TriangleOutS-0-0"
       refX="0"
       refY="0"
       orient="auto"
       inkscape:stockid="TriangleOutS">
      <path
         transform="scale(0.2)"
         style="fill:#000080;fill-opacity:1;fill-rule:evenodd;stroke:#000080;stroke-width:1.00000003pt;stroke-opacity:1"
         d="M 5.77,0 -2.88,5 V -5 Z"
         id="path2365-0-2"
         inkscape:connector-curvature="0" />
    </marker>
  </defs>
  <metadata
     id="metadata1514">
    <rdf:RDF>
      <cc:Work
         rdf:about="">
        <dc:format>image/svg+xml</dc:format>
        <dc:type
           rdf:resource="http://purl.org/dc/dcmitype/StillImage" />
        <dc:title />
      </cc:Work>
    </rdf:RDF>
  </metadata>
  <g
     id="layer1"
     inkscape:groupmode="layer"
     inkscape:label="Calque 1">
    <path
       d="m 30.090011,67.439111 c 3.733088,-3.686765 9.749316,-3.652306 13.439037,0.0797 3.691289,3.730093 3.660912,9.744935 -0.06658,13.439103 -3.727161,3.693834 -9.742389,3.669384 -13.43919,-0.0552 -3.698198,-3.72417 -3.678232,-9.739374 0.0418,-13.439103"
       style="fill:#000080;fill-opacity:1;fill-rule:nonzero;stroke:none;stroke-width:0.03704167;stroke-linecap:round;stroke-linejoin:round;stroke-miterlimit:10"
       id="path82-1"
       inkscape:connector-curvature="0" />
    <path
       d="m 63.645697,68.210789 c 3.734541,-3.686778 9.749367,-3.652319 13.440553,0.07971 3.689733,3.73008 3.660849,9.744921 -0.06779,13.439089 -3.727513,3.69383 -9.742326,3.66937 -13.439449,-0.0552 -3.696748,-3.724169 -3.677873,-9.739374 0.0437,-13.43909"
       style="fill:#800000;fill-opacity:1;fill-rule:nonzero;stroke:none;stroke-width:0.03704167;stroke-linecap:round;stroke-linejoin:round;stroke-miterlimit:10"
       id="path84-4"
       inkscape:connector-curvature="0" />
    <path
       d="m 63.645697,68.210789 c 3.734541,-3.686778 9.749367,-3.652319 13.440553,0.07971 3.689733,3.73008 3.660849,9.744921 -0.06779,13.439089 -3.727513,3.69383 -9.742326,3.66937 -13.439449,-0.0552 -3.696748,-3.724169 -3.677873,-9.739374 0.0437,-13.43909"
       style="fill:none;stroke:#000000;stroke-width:0.01344612;stroke-linecap:butt;stroke-linejoin:miter;stroke-miterlimit:4;stroke-dasharray:0.0537845, 0.08067675;stroke-dashoffset:0;stroke-opacity:1"
       id="path86-6"
       inkscape:connector-curvature="0" />
    <text
       id="text2166"
       y="76.694504"
       x="33.167965"
       style="font-style:normal;font-variant:normal;font-weight:normal;font-stretch:normal;font-size:7.05555534px;line-height:1.25;font-family:Arial;-inkscape-font-specification:'Arial, Normal';font-variant-ligatures:normal;font-variant-caps:normal;font-variant-numeric:normal;font-feature-settings:normal;text-align:start;letter-spacing:0px;word-spacing:0px;writing-mode:lr-tb;text-anchor:start;fill:#ffffff;fill-opacity:1;stroke:none;stroke-width:0.26458332"
       xml:space="preserve"><tspan
         style="font-style:normal;font-variant:normal;font-weight:normal;font-stretch:normal;font-size:7.05555534px;font-family:Arial;-inkscape-font-specification:'Arial, Normal';font-variant-ligatures:normal;font-variant-caps:normal;font-variant-numeric:normal;font-feature-settings:normal;text-align:start;writing-mode:lr-tb;text-anchor:start;fill:#ffffff;stroke-width:0.26458332"
         y="76.694504"
         x="33.167965"
         id="tspan2164"
         sodipodi:role="line">C1</tspan></text>
    <text
       id="text2166-8"
       y="76.823997"
       x="65.101006"
       style="font-style:normal;font-variant:normal;font-weight:normal;font-stretch:normal;font-size:7.05555534px;line-height:1.25;font-family:Arial;-inkscape-font-specification:'Arial, Normal';font-variant-ligatures:normal;font-variant-caps:normal;font-variant-numeric:normal;font-feature-settings:normal;text-align:start;letter-spacing:0px;word-spacing:0px;writing-mode:lr-tb;text-anchor:start;fill:#ffffff;fill-opacity:1;stroke:none;stroke-width:0.26458332"
       xml:space="preserve"><tspan
         y="76.823997"
         x="65.101006"
         id="tspan2186"
         sodipodi:role="line"
         style="stroke-width:0.26458332">C2</tspan></text>
    <path
       inkscape:connector-curvature="0"
       id="path2212"
       d="m 43.778965,81.464472 h 15.87499"
       style="fill:#000080;fill-opacity:1;stroke:#000080;stroke-width:0.5;stroke-linecap:butt;stroke-linejoin:miter;stroke-miterlimit:10;stroke-dasharray:none;stroke-opacity:1;marker-end:url(#DotL)" />
    <path
       inkscape:connector-curvature="0"
       id="path2212-9"
       d="M 46.424791,66.912373 H 62.299793"
       style="fill:#800000;fill-opacity:1;stroke:#800000;stroke-width:0.5;stroke-linecap:butt;stroke-linejoin:miter;stroke-miterlimit:10;stroke-dasharray:none;stroke-opacity:1;marker-start:url(#marker3076)" />
    <path
       sodipodi:nodetypes="cc"
       inkscape:connector-curvature="0"
       id="path3282"
       d="M 30.020627,81.199878 C 15.468542,87.814468 19.437299,76.172795 26.051882,74.849886"
       style="fill:none;fill-opacity:1;stroke:#000080;stroke-width:0.26499999;stroke-linecap:butt;stroke-linejoin:miter;stroke-miterlimit:10;stroke-dasharray:none;stroke-opacity:1;marker-end:url(#TriangleInL)" />
    <path
       sodipodi:nodetypes="cc"
       inkscape:connector-curvature="0"
       id="path3282-7"
       d="m 79.233132,79.083214 c 6.614596,14.552084 -3.175013,12.435404 -4.497919,5.820844"
       style="fill:none;fill-opacity:1;stroke:#800000;stroke-width:0.26499999;stroke-linecap:butt;stroke-linejoin:miter;stroke-miterlimit:10;stroke-dasharray:none;stroke-opacity:1;marker-end:url(#TriangleInL-6)" />
    <text
       id="text4100"
       y="37.397465"
       x="35.965504"
       style="font-style:normal;font-variant:normal;font-weight:normal;font-stretch:normal;font-size:8.81944466px;line-height:1.25;font-family:Arial;-inkscape-font-specification:'Arial, Normal';font-variant-ligatures:normal;font-variant-caps:normal;font-variant-numeric:normal;font-feature-settings:normal;text-align:start;letter-spacing:0px;word-spacing:0px;writing-mode:lr-tb;text-anchor:start;fill:#000000;fill-opacity:1;stroke:none;stroke-width:0.26458332"
       xml:space="preserve"><tspan
         y="37.397465"
         x="35.965504"
         id="tspan2980"
         sodipodi:role="line">Decision</tspan></text>
    <path
       sodipodi:nodetypes="cc"
       inkscape:connector-curvature="0"
       id="path4122-3"
       d="M 69.836389,110.55395 V 92.250974"
       style="opacity:1;fill:#800000;fill-opacity:1;stroke:#800000;stroke-width:3.34028769;stroke-linecap:butt;stroke-linejoin:miter;stroke-miterlimit:10;stroke-dasharray:none;stroke-opacity:1;marker-end:url(#TriangleOutS-0)" />
    <path
       sodipodi:nodetypes="cc"
       inkscape:connector-curvature="0"
       id="path4122-2"
       d="m 36.897125,62.389638 -1.3e-5,-17.197936"
       style="opacity:0.7;fill:#000080;fill-opacity:1;stroke:#000080;stroke-width:3.23788357;stroke-linecap:butt;stroke-linejoin:miter;stroke-miterlimit:10;stroke-dasharray:none;stroke-opacity:1;marker-end:url(#TriangleOutS-4)" />
    <path
       sodipodi:nodetypes="cc"
       inkscape:connector-curvature="0"
       id="path4122-2-9"
       d="m 68.968106,62.389638 -1.3e-5,-17.197936"
       style="opacity:0.66000001;fill:#800000;fill-opacity:1;stroke:#800000;stroke-width:3.23788357;stroke-linecap:butt;stroke-linejoin:miter;stroke-miterlimit:10;stroke-dasharray:none;stroke-opacity:1;marker-end:url(#TriangleOutS-4-4)" />
    <text
       id="text2740"
       y="27.287891"
       x="11.391758"
       style="font-style:normal;font-weight:normal;font-size:10.58333302px;line-height:1.25;font-family:sans-serif;letter-spacing:0px;word-spacing:0px;fill:#000000;fill-opacity:1;stroke:none;stroke-width:0.26458332"
       xml:space="preserve"><tspan
         style="font-style:normal;font-variant:normal;font-weight:normal;font-stretch:normal;font-size:10.58333302px;font-family:Arial;-inkscape-font-specification:'Arial, Normal';font-variant-ligatures:normal;font-variant-caps:normal;font-variant-numeric:normal;font-feature-settings:normal;text-align:start;writing-mode:lr-tb;text-anchor:start;stroke-width:0.26458332"
         y="27.287891"
         x="11.391758"
         id="tspan2738"
         sodipodi:role="line">A</tspan></text>
    <g
       id="g4038"
       transform="matrix(0.14111111,0,0,-0.14111111,121.75279,101.0257)">
      <path
         inkscape:connector-curvature="0"
         id="path4040"
         style="fill:#ffffff;fill-opacity:1;fill-rule:nonzero;stroke:none;stroke-linecap:round;stroke-linejoin:round;stroke-miterlimit:10"
         d="M 0,0 H 720 V 576 H 0 Z" />
    </g>
    <g
       id="g4044"
       transform="matrix(0.14111111,0,0,-0.14111111,121.75279,101.0257)">
      <g
         clip-path="url(#clipPath4050)"
         id="g4046">
        <path
           inkscape:connector-curvature="0"
           id="path4052"
           style="fill:#ffffff;fill-opacity:1;fill-rule:nonzero;stroke:none;stroke-linecap:round;stroke-linejoin:round;stroke-miterlimit:10"
           d="M 52.64,50.2 H 705.83 V 547.65 H 52.64 Z" />
        <path
           inkscape:connector-curvature="0"
           id="path4054"
           style="fill:none;stroke:#f0f0f0;stroke-width:1.36000001;stroke-linecap:butt;stroke-linejoin:round;stroke-miterlimit:10;stroke-dasharray:none;stroke-opacity:1"
           d="M 52.64,72.81 H 705.83" />
        <path
           inkscape:connector-curvature="0"
           id="path4056"
           style="fill:none;stroke:#f0f0f0;stroke-width:1.36000001;stroke-linecap:butt;stroke-linejoin:round;stroke-miterlimit:10;stroke-dasharray:none;stroke-opacity:1"
           d="M 52.64,166.77 H 705.83" />
        <path
           inkscape:connector-curvature="0"
           id="path4058"
           style="fill:none;stroke:#f0f0f0;stroke-width:1.36000001;stroke-linecap:butt;stroke-linejoin:round;stroke-miterlimit:10;stroke-dasharray:none;stroke-opacity:1"
           d="M 52.64,260.72 H 705.83" />
        <path
           inkscape:connector-curvature="0"
           id="path4060"
           style="fill:none;stroke:#f0f0f0;stroke-width:1.36000001;stroke-linecap:butt;stroke-linejoin:round;stroke-miterlimit:10;stroke-dasharray:none;stroke-opacity:1"
           d="M 52.64,354.68 H 705.83" />
        <path
           inkscape:connector-curvature="0"
           id="path4062"
           style="fill:none;stroke:#f0f0f0;stroke-width:1.36000001;stroke-linecap:butt;stroke-linejoin:round;stroke-miterlimit:10;stroke-dasharray:none;stroke-opacity:1"
           d="M 52.64,448.63 H 705.83" />
        <path
           inkscape:connector-curvature="0"
           id="path4064"
           style="fill:none;stroke:#f0f0f0;stroke-width:1.36000001;stroke-linecap:butt;stroke-linejoin:round;stroke-miterlimit:10;stroke-dasharray:none;stroke-opacity:1"
           d="M 52.64,542.59 H 705.83" />
        <path
           inkscape:connector-curvature="0"
           id="path4066"
           style="fill:none;stroke:#f0f0f0;stroke-width:1.36000001;stroke-linecap:butt;stroke-linejoin:round;stroke-miterlimit:10;stroke-dasharray:none;stroke-opacity:1"
           d="M 81.73,50.2 V 547.65" />
        <path
           inkscape:connector-curvature="0"
           id="path4068"
           style="fill:none;stroke:#f0f0f0;stroke-width:1.36000001;stroke-linecap:butt;stroke-linejoin:round;stroke-miterlimit:10;stroke-dasharray:none;stroke-opacity:1"
           d="M 200.61,50.2 V 547.65" />
        <path
           inkscape:connector-curvature="0"
           id="path4070"
           style="fill:none;stroke:#f0f0f0;stroke-width:1.36000001;stroke-linecap:butt;stroke-linejoin:round;stroke-miterlimit:10;stroke-dasharray:none;stroke-opacity:1"
           d="M 319.49,50.2 V 547.65" />
        <path
           inkscape:connector-curvature="0"
           id="path4072"
           style="fill:none;stroke:#f0f0f0;stroke-width:1.36000001;stroke-linecap:butt;stroke-linejoin:round;stroke-miterlimit:10;stroke-dasharray:none;stroke-opacity:1"
           d="M 438.37,50.2 V 547.65" />
        <path
           inkscape:connector-curvature="0"
           id="path4074"
           style="fill:none;stroke:#f0f0f0;stroke-width:1.36000001;stroke-linecap:butt;stroke-linejoin:round;stroke-miterlimit:10;stroke-dasharray:none;stroke-opacity:1"
           d="M 557.26,50.2 V 547.65" />
        <path
           inkscape:connector-curvature="0"
           id="path4076"
           style="fill:none;stroke:#f0f0f0;stroke-width:1.36000001;stroke-linecap:butt;stroke-linejoin:round;stroke-miterlimit:10;stroke-dasharray:none;stroke-opacity:1"
           d="M 676.14,50.2 V 547.65" />
        <path
           inkscape:connector-curvature="0"
           id="path4078"
           style="fill:none;stroke:#b22222;stroke-width:2.13000011;stroke-linecap:butt;stroke-linejoin:round;stroke-miterlimit:10;stroke-dasharray:none;stroke-opacity:1"
           d="m 82.33,72.81 0.59,0.02 0.6,0.41 0.59,1.36 0.59,2.15 0.6,7.94 0.59,6.79 0.6,11.02 0.59,-6.2 0.6,5.68 0.59,-3.02 0.6,3.34 0.59,-10.08 0.59,12.24 0.6,15.69 0.59,-3.73 0.6,10.91 0.59,43.16 0.6,-14.18 0.59,-15.17 0.6,-10.23 0.59,-2.83 0.59,-2.69 0.6,-10.46 0.59,4.09 0.6,-10.39 0.59,-0.66 0.6,-9.33 0.59,0.33 0.59,15.95 0.6,9.36 0.59,5.59 0.6,4.78 0.59,16.57 0.6,-30.99 0.59,37.64 0.6,-9.18 0.59,-25.46 0.59,-5.78 0.6,13.91 0.59,25.27 0.6,11.04 0.59,10.74 0.6,-6.53 0.59,-18.84 0.6,-31.68 0.59,-5.37 0.59,-5.99 0.6,9.42 0.59,-12.33 0.6,13.64 0.59,18.25 0.6,20.67 0.59,0.08 0.59,-6.2 0.6,8.23 0.59,-22.14 0.6,19 0.59,32.78 0.6,-26.06 0.59,4.5 0.6,-15.57 0.59,-19.89 0.59,-29.62 0.6,18.81 0.59,-15.53 0.6,4.72 0.59,6.11 0.6,40.4 0.59,7.59 0.6,-4.89 0.59,-17.37 0.59,-6.2 0.6,17.67 0.59,-9.16 0.6,-19.44 0.59,-6.55 0.6,11.44 0.59,-12.75 0.59,4.07 0.6,8.72 0.59,14.29 0.6,-10.99 0.59,2.42 0.6,-0.97 0.59,9.11 0.6,3.76 0.59,4.61 0.59,9.51 0.6,-31.61 0.59,-14.49 0.6,-2.05 0.59,-5.53 0.6,11.57 0.59,-13.8 0.6,-3.03 0.59,1.49 0.59,15.94 0.6,8.16 0.59,30.92 0.6,20.92 0.59,10.07 0.6,-45.47 0.59,-0.67 0.6,2.01 0.59,36.57 0.59,-18.44 0.6,19.66 0.59,13.3 0.6,-15.04 0.59,-42.79 0.6,8.72 0.59,-16.32 0.59,-0.94 0.6,-3.99 0.59,11.16 0.6,-14.01 0.59,11.95 0.6,-11.6 0.59,-5.44 0.6,-2.22 0.59,-0.97 0.59,21.04 0.6,-22.33 0.59,7.73 0.6,7.58 0.59,-14.79 0.6,-12.71 0.59,0.02 0.6,11.46 0.59,-1.52 0.59,18.52 0.6,-6.75 0.59,15.6 0.6,-3.07 0.59,-9.22 0.6,-5.43 0.59,3.34 0.59,12.87 0.6,-6.33 0.59,20.7 0.6,13.73 0.59,-20.09 0.6,-7.61 0.59,-21.89 0.6,11.1 0.59,-11.63 0.59,-2.22 0.6,-8.57 0.59,-6.63 0.6,-3.09 0.59,12.53 0.6,13.17 0.59,-4.54 0.6,16.52 0.59,0.45 0.59,42.2 0.6,0.29 0.59,-9.07 0.6,-39.74 0.59,13.69 0.6,-19.3 0.59,11.75 0.59,25.53 0.6,13.05 0.59,17.43 0.6,-0.64 0.59,-12.63 0.6,27.61 0.59,-24.32 0.6,2.75 0.59,-30.89 0.59,-25.73 0.6,-3.43 0.59,0.07 0.6,27.53 0.59,1.16 0.6,13.2 0.59,8 0.6,3.08 0.59,-12.36 0.59,64.75 0.6,37.13 0.59,-20.41 0.6,-35.44 0.59,-46.17 0.6,-19.14 0.59,9.39 0.59,-21.1 0.6,-7.87 0.59,16.21 0.6,-18.34 0.59,16.96 0.6,35.03 0.59,-18.93 0.6,-19.32 0.59,-1.81 0.59,32.6 0.6,-4.83 0.59,2.3 0.6,27.92 0.59,7.54 0.6,-51.27 0.59,-17.08 0.6,-14.53 0.59,5.58 0.59,-1.27 0.6,-0.56 0.59,4.35 0.6,18.01 0.59,-4.9 0.6,8.51 0.59,-0.1 0.6,7.15 0.59,-18.52 0.59,-5.85 0.6,16.37 0.59,7.34 0.6,29.23 0.59,7.15 0.6,43.51 0.59,-10.22 0.59,22.35 0.6,-34.24 0.59,-52.82 0.6,-13.76 0.59,6.58 0.6,4.07 0.59,-2.35 0.6,-1.17 0.59,21.12 0.59,-7.83 0.6,50.04 0.59,-10.22 0.6,-24.44 0.59,8.97 0.6,-34.7 0.59,-20.67 0.6,7.88 0.59,37.68 0.59,53.67 0.6,-66.14 0.59,-3.18 0.6,-25.63 0.59,9.96 0.6,-26.34 0.59,18.86 0.59,-11.55 0.6,6.52 0.59,16.47 0.6,-3.21 0.59,-15.73 0.6,29.57 0.59,-3.44 0.6,-36.04 0.59,19.59 0.59,-9.79 0.6,-4.47 0.59,-22.04 0.6,3.1 0.59,11.9 0.6,9.03 0.59,21.73 0.6,-1.51 0.59,-11.04 0.59,14.36 0.6,3.05 0.59,-0.55 0.6,4.74 0.59,-25.45 0.6,17.1 0.59,38.02 0.59,47.22 0.6,-49.34 0.59,-27.94 0.6,-15.45 0.59,-6.65 0.6,-12.59 0.59,3.31 0.6,15.05 0.59,9.84 0.59,-10.81 0.6,38.65 0.59,-33.88 0.6,-2.09 0.59,4.79 0.6,15.31 0.59,-1.17 0.6,29.32 0.59,-22.87 0.59,-8.4 0.6,23.89 0.59,-31.24 0.6,13.37 0.59,14.59 0.6,11.44 0.59,-20.62 0.59,11.24 0.6,-8.35 0.59,-6.17 0.6,23.23 0.59,-33.67 0.6,1.87 0.59,-10.66 0.6,-13.58 0.59,2.71 0.59,3.77 0.6,-33.59 0.59,-6.84 0.6,13.36 0.59,3.7 0.6,15.4 0.59,18.27 0.6,-4.52 0.59,13.38 0.59,-31.44 0.6,1.96 0.59,-4.83 0.6,14.97 0.59,33.6 0.6,-27.65 0.59,24.6 0.6,1.31 0.59,-6.05 0.59,-23.95 0.6,-11.7 0.59,29.41 0.6,-10 0.59,12.82 0.6,-12.27 0.59,-3.87 0.59,-8.28 0.6,0.6 0.59,-7.12 0.6,-18.99 0.59,37.23 0.6,26.8 0.59,-32.1 0.6,-6.19 0.59,25.24 0.59,-28.2 0.6,8.81 0.59,-11.93 0.6,16.51 0.59,1.78 0.6,-3.57 0.59,28.37 0.6,23.7 0.59,-25.36 0.59,-4.74 0.6,20.61 0.59,8.59 0.6,-58.13 0.59,-29.99 0.6,11.42 0.59,26.41 0.59,29.29 0.6,23.78 0.59,-52.12 0.6,-19.87 0.59,24.89 0.6,16.75 0.59,10.24 0.6,-37.67 0.59,-10.22 0.59,24.17 0.6,64.13 0.59,-1.62 0.6,5.23 0.59,-40.18 0.6,6.24 0.59,-26.93 0.6,-2.41 0.59,-19.34 0.59,-20.76 0.6,10.77 0.59,18.25 0.6,-25.97 0.59,9.7 0.6,11.73 0.59,19.37 0.59,-28.75 0.6,4.36 0.59,-12.8 0.6,48.79 0.59,-13.02 0.6,-30.59 0.59,-0.75 0.6,12.14 0.59,16.7 0.59,-30.8 0.6,12.23 0.59,44.05 0.6,11.21 0.59,-42.53 0.6,-8.4 0.59,-20.31 0.6,-9.54 0.59,15.56 0.59,43.01 0.6,-16.11 0.59,10.92 0.6,-8.74 0.59,19.9 0.6,41.93 0.59,-33.79 0.59,-10.79 0.6,48.85 0.59,-6.12 0.6,-29.68 0.59,-11.68 0.6,-39.58 0.59,3.49 0.6,3.59 0.59,27.87 0.59,-1.57 0.6,-3.15 0.59,2.95 0.6,0.62 0.59,-3.16 0.6,-17.58 0.59,-38.01 0.6,35.9 0.59,-3.15 0.59,-3.35 0.6,2.96 0.59,-10.59 0.6,10.68 0.59,26.89 0.6,6.78 0.59,-3.58 0.6,23.06 0.59,-25.14 0.59,-27.29 0.6,30.71 0.59,-4.87 0.6,28.79 0.59,-8.37 0.6,-30.37 0.59,29.01 0.59,-14.35 0.6,-41.97 0.59,44.28 0.6,-42.41 0.59,-2.93 0.6,3.25 0.59,-13.4 0.6,5.2 0.59,-20.29 0.59,23.36 0.6,-0.25 0.59,19.65 0.6,62.09 0.59,-18.37 0.6,-23.72 0.59,16.2 0.6,-22.7 0.59,10.22 0.59,2.48 0.6,-35.1 0.59,36.55 0.6,-34.33 0.59,-1.16 0.6,17.2 0.59,10.03 0.59,28.93 0.6,-47.62 0.59,27.82 0.6,-14.22 0.59,-36.22 0.6,-16.37 0.59,15.2 0.6,8.63 0.59,1.46 0.59,53.33 0.6,20.15 0.59,1.48 0.6,2.25 0.59,-32.11 0.6,22.64 0.59,-8.88 0.6,-31.68 0.59,80.29 0.59,-41.49 0.6,-38.85 0.59,-9.93 0.6,-17.53 0.59,11.65 0.6,-30.57 0.59,0.28 0.59,14.17 0.6,-2.68 0.59,44.81 0.6,-17.2 0.59,-2.34 0.6,-16.74 0.59,-4.54 0.6,12.92 0.59,26.38 0.59,32.65 0.6,-22.52 0.59,-11.3 0.6,-14.58 0.59,-25.76 0.6,5.61 0.59,-8.52 0.6,13.46 0.59,10.26 0.59,-2.59 0.6,12.24 0.59,27.35 0.6,3.05 0.59,-19.33 0.6,-32.85 0.59,11.7 0.59,-26.61 0.6,4.03 0.59,6.69 0.6,27.67 0.59,-5.05 0.6,27.42 0.59,-21.96 0.6,16.14 0.59,-36.94 0.59,-21.3 0.6,26.78 0.59,-0.79 0.6,24.72 0.59,-13.61 0.6,6.36 0.59,-24.67 0.6,18.19 0.59,47.41 0.59,32.82 0.6,-6.64 0.59,0.26 0.6,-33.25 0.59,-4.51 0.6,11.46 0.59,14.28 0.6,60.47 0.59,-48.27 0.59,18.88 0.6,-22 0.59,52.44 0.6,-18.26 0.59,24.51 0.6,-43.82 0.59,21.02 0.59,-28.06 0.6,-15.73 0.59,1.75 0.6,7.84 0.59,6.49 0.6,14.5 0.59,-17.14 0.6,24.04 0.59,-21.28 0.59,-17.35 0.6,-27.48 0.59,-43.4 0.6,-8.17 0.59,21.71 0.6,7.5 0.59,13.11 0.6,0.09 0.59,-7.55 0.59,16.18 0.6,-14.3 0.59,4.05 0.6,72.84 0.59,-51.59 0.6,2.69 0.59,-39.78 0.59,21.84 0.6,-20.41 0.59,46.83 0.6,3.21 0.59,10.34 0.6,-5.03 0.59,-4.03 0.6,-13 0.59,7.33 0.59,23.65 0.6,-42.11 0.59,-30.15 0.6,-16.33 0.59,22.98 0.6,-1.78 0.59,-2.85 0.6,-13.89 0.59,-13.55 0.59,41.45 0.6,-8.87 0.59,44.6 0.6,4.02 0.59,17.89 0.6,-20.53 0.59,13.04 0.59,30.92 0.6,-44.21 0.59,-8.07 0.6,-25.5 0.59,28.54 0.6,-3.28 0.59,32.97 0.6,24.38 0.59,-29.34 0.59,-58.73 0.6,0.1 0.59,2.04 0.6,-18.07 0.59,-1.4 0.6,-14.05 0.59,-1.74 0.6,45.54 0.59,-33.96 0.59,27.05 0.6,17.36 0.59,-26.64 0.6,6.2 0.59,-11.12 0.6,92.02 0.59,2 0.59,-28.61 0.6,-16.4 0.59,-38.2 0.6,0.78 0.59,-33.48 0.6,8.08 0.59,6.22 0.6,-2.64 0.59,83.23 0.59,17.04 0.6,8.91 0.59,-34.38 0.6,37.1 0.59,3.54 0.6,-13.87 0.59,-18.93 0.6,3.45 0.59,-3.64 0.59,-11.31 0.6,27.87 0.59,15.81 0.6,-11.49 0.59,-65.05 0.6,-38.03 0.59,12.79 0.6,-15.21 0.59,20.04 0.59,42.65 0.6,18.61 0.59,35.95 0.6,-73.68 0.59,-26.76 0.6,26.29 0.59,-18.37 0.59,7.18 0.6,15.49 0.59,0.18 0.6,-4.9 0.59,9.42 0.6,-34.52 0.59,-19.12 0.6,-11.69 0.59,21.1 0.59,21.91 0.6,12.5 0.59,4.82 0.6,-18.82 0.59,22.54 0.6,-33.46 0.59,19.63 0.6,15.35 0.59,-5.57 0.59,40.82 0.6,-4.51 0.59,-31.71 0.6,20.05 0.59,-50.29 0.6,24.72 0.59,-5.39 0.59,-7.56 0.6,32.41 0.59,-42.51 0.6,12.19 0.59,-33.66 0.6,32.02 0.59,40.17 0.6,16.27 0.59,15.6 0.59,-16.25 0.6,-18.8 0.59,-40.62 0.6,33.45 0.59,-8.41 0.6,6.78 0.59,43.1 0.6,-54.74 0.59,19.18 0.59,-46.42 0.6,-7.9 0.59,39.88 0.6,3.43 0.59,23.41 0.6,35.72 0.59,-47.47 0.59,13.3 0.6,-39.94 0.59,35.16 0.6,-16.63 0.59,16.09 0.6,-5.61 0.59,32.29 0.6,-49.51 0.59,32.95 0.59,-4.69 0.6,41.95 0.59,-28.86 0.6,6.83 0.59,0.1 0.6,17.63 0.59,21.08 0.6,13.21 0.59,-22.82 0.59,-17.16 0.6,22.68 0.59,4.85 0.6,-9.08 0.59,-18.79 0.6,11.15 0.59,-49.81 0.59,9.18 0.6,11.47 0.59,72.69 0.6,-5.73 0.59,-32.59 0.6,31.11 0.59,57.5 0.6,-74.14 0.59,-24.46 0.59,9.56 0.6,-34.17 0.59,-7.83 0.6,-10.29 0.59,-12.52 0.6,20.93 0.59,4.82 0.6,0.2 0.59,3.69 0.59,-22.01 0.6,35.68 0.59,0.4 0.6,-39.15 0.59,15.29 0.6,-30.4 0.59,-25.17 0.6,15.89 0.59,-30.02 0.59,-10.15 0.6,61.99 0.59,3.02 0.6,-14.36 0.59,24.01 0.6,26.46 0.59,14.63 0.59,2.13 0.6,50.56 0.59,40.75 0.6,31.08 0.59,-36.53 0.6,-82.85 0.59,12.65 0.6,8.75 0.59,-22.28 0.59,17.84 0.6,-9.85 0.59,-62.76 0.6,-31 0.59,-14.51 0.6,64.78 0.59,-64.28 0.6,11.1 0.59,-25.17 0.59,28.15 0.6,-40.95 0.59,14.66 0.6,18.23 0.59,-30.32 0.6,-5.74 0.59,15.28 0.59,9.13 0.6,37.54 0.59,34.07 0.6,70.15 0.59,1.56 0.6,90.28 0.59,-25.92 0.6,-66.93 0.59,-2.27 0.59,29.3 0.6,-26.93 0.59,9.3 0.6,44.23 0.59,-13.73 0.6,-19.04 0.59,80.21 0.6,-54.3 0.59,-65.91 0.59,-90.8 0.6,21.21 0.59,7.81 0.6,6.69 0.59,-22.63 0.6,-50.84 0.59,32.93 0.59,-19.83 0.6,14.06 0.59,-2.6 0.6,0.24 0.59,-27.96 0.6,8.16 0.59,14.42 0.6,38.65 0.59,-2.17 0.59,14.77 0.6,78.73 0.59,-43.92 0.6,-8.86 0.59,-36.33 0.6,69.49 0.59,10.28 0.6,10.49 0.59,-90.54 0.59,41.22 0.6,-79.36 0.59,27.03 0.6,45.57 0.59,47.72 0.6,-29.89 0.59,-63.85 0.59,29.91 0.6,25.39 0.59,-60.81 0.6,63.07 0.59,-8.54 0.6,30.01 0.59,18.36 0.6,-59.47 0.59,-23.08 0.59,23.43 0.6,-33.72 0.59,16.27 0.6,-12.64 0.59,4.29 0.6,65.73 0.59,-66.14 0.6,43.29 0.59,-5.3 0.59,-9.37 0.6,-28.6 0.59,17.36 0.6,-3.18 0.59,21.98 0.6,-14.82 0.59,-1.89 0.6,81.1 0.59,-61.17 0.59,-28.02 0.6,11.45 0.59,-18.5 0.6,-38.48 0.59,53.93 0.6,-13.79 0.59,-18.8 0.59,35.96 0.6,-50.67 0.59,-27.49 0.6,17.68 0.59,-17.6 0.6,40.18 0.59,69.49 0.6,4.63 0.59,22.98 0.59,-17.92 0.6,78.02 0.59,-52.8 0.6,69.35 0.59,22.23 0.6,-49.62 0.59,-49.54 0.6,2.27 0.59,-5.27 0.59,1.39 0.6,-43.11 0.59,8.85 0.6,75.35 0.59,-15.78 0.6,-67.86 0.59,-17.8 0.59,13.54 0.6,-22.39 0.59,20.92 0.6,70.02 0.59,-6.9 0.6,-7.64 0.59,13.21 0.6,-53.53 0.59,36.84 0.59,-76.03 0.6,30.94 0.59,-28.4 0.6,-17.11 0.59,34.5 0.6,39.16 0.59,-1.84 0.6,22.91 0.59,-10.18 0.59,59.18 0.6,-65.7 0.59,54.07 0.6,-68.26 0.59,11.62 0.6,-50.94 0.59,23.14 0.59,88.59 0.6,30.52 0.59,-42.67 0.6,-61.32 0.59,42.37 0.6,-31.92 0.59,-1.22 0.6,13.53 0.59,24.48 0.59,6.73 0.6,-5.89 0.59,14.61 0.6,39.81 0.59,46.42 0.6,-10.18 0.59,-56.6 0.6,2.25 0.59,20.22 0.59,-5.57 0.6,43.27 0.59,-36.07 0.6,-40.43 0.59,-13.68 0.6,-9.71 0.59,54.22 0.59,-46.2 0.6,-23.49 0.59,-60.47 0.6,40.34 0.59,46.74 0.6,-10.77 0.59,73.8 0.6,-28.94 0.59,-31.94 0.59,6.83 0.6,-16.54 0.59,-20.48 0.6,82.96 0.59,-39.33 0.6,25.51 0.59,88.57 0.6,-69.81 0.59,38.25 0.59,-43.12 0.6,35.92 0.59,-31.38 0.6,-74.22 0.59,32.15 0.6,-35.66 0.59,130.4 0.6,-18.02 0.59,5.39 0.59,-42.15 0.6,-71.94 0.59,-91.73 0.6,73.65 0.59,11.93 0.6,40.48 0.59,-14.83 0.59,-74.22 0.6,50.37 0.59,13.18 0.6,16.46 0.59,8.58 0.6,40.77 0.59,-5.02 0.6,5.54 0.59,-12.78 0.59,3.4 0.6,-43.33 0.59,39.26 0.6,36.32 0.59,45.28 0.6,43.74" />
        <path
           inkscape:connector-curvature="0"
           id="path4080"
           style="fill:none;stroke:#000080;stroke-width:2.13000011;stroke-linecap:butt;stroke-linejoin:round;stroke-miterlimit:10;stroke-dasharray:none;stroke-opacity:1"
           d="m 82.33,72.81 0.59,0.01 0.6,0.15 0.59,0.59 0.59,1.58 0.6,3.79 0.59,8.07 0.6,6.37 0.59,2.03 0.6,4.22 0.59,5.26 0.6,2.82 0.59,6.62 0.59,-2.05 0.6,-9.41 0.59,5.82 0.6,9.51 0.59,-14.91 0.6,-13.19 0.59,3.56 0.6,6.12 0.59,1.9 0.59,10.53 0.6,-0.99 0.59,-6.6 0.6,0.04 0.59,4.2 0.6,6.04 0.59,0.93 0.59,-4.27 0.6,-6.58 0.59,0.89 0.6,17.83 0.59,8.78 0.6,3 0.59,-1.91 0.6,-10.27 0.59,2.21 0.59,4.38 0.6,-14.75 0.59,-2.07 0.6,8.76 0.59,-18.9 0.6,24.12 0.59,-7.61 0.6,10.74 0.59,-12.46 0.59,8.66 0.6,-8.88 0.59,-13.02 0.6,13.94 0.59,1.46 0.6,4.96 0.59,-14.48 0.59,-5.27 0.6,15.65 0.59,8.68 0.6,11.53 0.59,-20.46 0.6,9.52 0.59,0.16 0.6,14.32 0.59,-13.59 0.59,-0.53 0.6,-10 0.59,27.57 0.6,0.39 0.59,18.51 0.6,1.06 0.59,-12.39 0.6,-15.23 0.59,-3.73 0.59,-15.27 0.6,21.36 0.59,-4.33 0.6,-20.74 0.59,16.25 0.6,17.13 0.59,-10.21 0.59,-33.36 0.6,-8.63 0.59,19.09 0.6,6.66 0.59,-0.34 0.6,-3.73 0.59,-9.41 0.6,-13.38 0.59,-6.99 0.59,-3.02 0.6,2.53 0.59,3.99 0.6,12.47 0.59,-0.43 0.6,-0.29 0.59,7.4 0.6,-6.58 0.59,15.96 0.59,25.66 0.6,-16.75 0.59,-13.6 0.6,-10.92 0.59,13.61 0.6,25.53 0.59,-6.54 0.6,-27.77 0.59,-14.25 0.59,11.66 0.6,8.06 0.59,15.49 0.6,11.56 0.59,-16.75 0.6,0.27 0.59,4.6 0.59,-18.73 0.6,-11.13 0.59,3.07 0.6,11.44 0.59,-1.24 0.6,-6.49 0.59,-9.26 0.6,2.76 0.59,-6.48 0.59,16.34 0.6,-6.74 0.59,-8.51 0.6,-0.15 0.59,-7.1 0.6,-3.38 0.59,6.18 0.6,15.89 0.59,7.45 0.59,-24.32 0.6,6.7 0.59,10.12 0.6,4.7 0.59,10.39 0.6,10.55 0.59,31.48 0.59,-30.87 0.6,22.19 0.59,-19.23 0.6,-23.26 0.59,0.67 0.6,1.02 0.59,-3.54 0.6,-16.16 0.59,12.02 0.59,9.89 0.6,-11.95 0.59,0.72 0.6,-12.7 0.59,-2.42 0.6,21.33 0.59,-4.41 0.6,8.27 0.59,-0.89 0.59,1.4 0.6,0.1 0.59,3.46 0.6,20.28 0.59,-12.09 0.6,-3.9 0.59,-14.69 0.59,27.23 0.6,-10.47 0.59,-7.29 0.6,-4.21 0.59,7.72 0.6,0.58 0.59,-8.79 0.6,6.44 0.59,-11.54 0.59,24.14 0.6,28.74 0.59,-34.2 0.6,17.27 0.59,7.21 0.6,-9.54 0.59,-29.41 0.6,-5.89 0.59,4.14 0.59,-9.9 0.6,0.17 0.59,3.91 0.6,-8.78 0.59,1.59 0.6,11 0.59,-3.49 0.59,-4.91 0.6,6.83 0.59,15.67 0.6,12.83 0.59,-23.1 0.6,26.2 0.59,-14.6 0.6,-25.56 0.59,12.35 0.59,2.47 0.6,1.5 0.59,-21.56 0.6,7.18 0.59,14.49 0.6,10.97 0.59,4.75 0.6,-23.47 0.59,-6.66 0.59,5.49 0.6,-8.19 0.59,12.92 0.6,-7.99 0.59,12.56 0.6,15.2 0.59,-24.3 0.6,1.42 0.59,21.93 0.59,18.61 0.6,-5.69 0.59,-24.95 0.6,10.65 0.59,-31.89 0.6,3.42 0.59,7.15 0.59,42.97 0.6,7.1 0.59,28.61 0.6,-39.68 0.59,-15.9 0.6,7.86 0.59,0.61 0.6,-18.07 0.59,4.15 0.59,-6.58 0.6,6.73 0.59,-7 0.6,5.48 0.59,10.13 0.6,-12.99 0.59,15.42 0.6,-19.09 0.59,12.27 0.59,-5.54 0.6,-6.98 0.59,20.96 0.6,-1.54 0.59,15.41 0.6,-4.21 0.59,-13.62 0.59,11.7 0.6,-17.84 0.59,3.46 0.6,-23.62 0.59,-7.99 0.6,-1.21 0.59,28.96 0.6,-12.66 0.59,-8.62 0.59,-2.61 0.6,9.84 0.59,34.36 0.6,-3.55 0.59,38.7 0.6,-15.23 0.59,12.2 0.6,-24.93 0.59,-20.8 0.59,-18.8 0.6,13.72 0.59,-1.07 0.6,8.32 0.59,15.53 0.6,-5.75 0.59,0.33 0.59,6.32 0.6,26.1 0.59,-41.85 0.6,8.74 0.59,-23.08 0.6,11.49 0.59,-11 0.6,42.35 0.59,-24.94 0.59,-39.59 0.6,8.95 0.59,15.35 0.6,0.98 0.59,2.52 0.6,-26.31 0.59,-7.31 0.6,1.14 0.59,-4.27 0.59,9.01 0.6,-1.38 0.59,7.5 0.6,13.04 0.59,15.6 0.6,36.66 0.59,-10.04 0.59,-25.28 0.6,14.17 0.59,2.76 0.6,-26.69 0.59,-13.59 0.6,-15.08 0.59,-2.05 0.6,7.24 0.59,8.64 0.59,-6.18 0.6,7.9 0.59,-13.81 0.6,8.06 0.59,10.12 0.6,-1.94 0.59,-0.75 0.6,-3.18 0.59,4.47 0.59,-9.34 0.6,-5.44 0.59,8.24 0.6,2.27 0.59,7.48 0.6,5.44 0.59,-0.48 0.6,-11.29 0.59,6.85 0.59,28.09 0.6,4.88 0.59,-17.52 0.6,38.16 0.59,-24.41 0.6,14.83 0.59,-10.23 0.59,-5.86 0.6,8.21 0.59,-27.74 0.6,27.21 0.59,-24.63 0.6,-17.2 0.59,12.82 0.6,4.13 0.59,-10.29 0.59,-0.85 0.6,-13.94 0.59,-8.11 0.6,-0.29 0.59,18.37 0.6,6.28 0.59,15.59 0.6,-6.4 0.59,-3.12 0.59,-19.49 0.6,-12.96 0.59,12.14 0.6,-10.59 0.59,16.76 0.6,-6.52 0.59,25.35 0.59,-14.13 0.6,-3 0.59,1.52 0.6,-12.16 0.59,-4.59 0.6,20.64 0.59,-15.8 0.6,12.12 0.59,9.42 0.59,-13.65 0.6,3.59 0.59,-3.98 0.6,6.26 0.59,-5.93 0.6,-4.2 0.59,16.9 0.6,22.09 0.59,8.48 0.59,-34.67 0.6,-10.54 0.59,3.11 0.6,-3.38 0.59,44.22 0.6,15.28 0.59,7.36 0.59,-31.81 0.6,-14.04 0.59,-21.07 0.6,14.28 0.59,-13.29 0.6,5.24 0.59,12.5 0.6,-22.72 0.59,-0.92 0.59,10.59 0.6,6.54 0.59,9.8 0.6,18.13 0.59,3.5 0.6,8.48 0.59,-15.46 0.6,-13.17 0.59,18.28 0.59,-16.1 0.6,-0.15 0.59,6.34 0.6,31.61 0.59,13.54 0.6,-14.21 0.59,-49.29 0.59,-5.29 0.6,-7.63 0.59,6.39 0.6,1.2 0.59,-4.22 0.6,18.9 0.59,27.82 0.6,-1.53 0.59,18.52 0.59,-17.1 0.6,-11.42 0.59,-16.68 0.6,29.1 0.59,29.1 0.6,-45.19 0.59,14 0.6,-6.48 0.59,1.33 0.59,-15.84 0.6,-6.07 0.59,-2.43 0.6,-12.35 0.59,10.61 0.6,-9.82 0.59,0.03 0.6,-4.73 0.59,-3.21 0.59,20.67 0.6,-23.96 0.59,-10.1 0.6,-1.21 0.59,4.16 0.6,23.02 0.59,4.4 0.59,-8.52 0.6,-9.67 0.59,10.4 0.6,15.44 0.59,20.82 0.6,-28.72 0.59,-9.62 0.6,12.19 0.59,-2.04 0.59,0.47 0.6,19.96 0.59,-22.12 0.6,13.76 0.59,1.92 0.6,-15.92 0.59,-14.4 0.6,-7.01 0.59,16.88 0.59,18.18 0.6,-26.52 0.59,-17.5 0.6,-15.63 0.59,5.61 0.6,4.46 0.59,-1.33 0.59,-7.7 0.6,12.91 0.59,-0.85 0.6,-0.31 0.59,1.54 0.6,31.56 0.59,19.8 0.6,-7.07 0.59,12.73 0.59,-9.16 0.6,1.19 0.59,32.91 0.6,-4.22 0.59,-27.17 0.6,60.88 0.59,12.29 0.6,-86.43 0.59,4.57 0.59,13.57 0.6,2.19 0.59,12.68 0.6,-44.44 0.59,-0.44 0.6,-3.03 0.59,5.02 0.59,2.12 0.6,5.82 0.59,-0.7 0.6,-23.82 0.59,-4.74 0.6,19.39 0.59,-21.49 0.6,14.48 0.59,1.41 0.59,3.21 0.6,2.2 0.59,-1.48 0.6,11.11 0.59,-2.61 0.6,-18.08 0.59,9.8 0.6,10.93 0.59,-3.57 0.59,6.27 0.6,-8.13 0.59,0.09 0.6,-4.87 0.59,-12.95 0.6,23.91 0.59,-8.86 0.59,11.45 0.6,-16.47 0.59,7.69 0.6,13.58 0.59,5.46 0.6,0.1 0.59,1.26 0.6,10.88 0.59,-4.25 0.59,25.29 0.6,-19.97 0.59,-20.6 0.6,-17.26 0.59,0.94 0.6,3.39 0.59,-9.1 0.6,5.18 0.59,6.56 0.59,-9.78 0.6,-5.57 0.59,7.87 0.6,-2.26 0.59,11.29 0.6,15.79 0.59,-0.43 0.6,-18.52 0.59,8.19 0.59,6.09 0.6,-6.29 0.59,-29.88 0.6,7.87 0.59,10.1 0.6,-22.49 0.59,9.82 0.59,-4.36 0.6,15.85 0.59,-2.3 0.6,12.81 0.59,-1.22 0.6,-11.11 0.59,10.6 0.6,13.67 0.59,2.02 0.59,-3.48 0.6,-0.25 0.59,-26.84 0.6,6.07 0.59,-2.4 0.6,14.82 0.59,-0.69 0.6,2.9 0.59,-10.71 0.59,-6.86 0.6,2.37 0.59,47.56 0.6,-1.75 0.59,14.65 0.6,-43.53 0.59,-11.01 0.59,1.77 0.6,-15.12 0.59,15.88 0.6,20.3 0.59,8.96 0.6,22.56 0.59,0.08 0.6,-41.07 0.59,-7.35 0.59,7.75 0.6,3.33 0.59,-5.85 0.6,-9.43 0.59,4.54 0.6,-9.38 0.59,9.92 0.6,-4.68 0.59,-15.97 0.59,9.07 0.6,31.96 0.59,-25.62 0.6,-0.14 0.59,2.7 0.6,-17.37 0.59,-5.4 0.59,46.9 0.6,-12.29 0.59,-14.98 0.6,14.79 0.59,-5.13 0.6,-11.74 0.59,-24.54 0.6,8.66 0.59,20.54 0.59,29.37 0.6,-24.53 0.59,2.19 0.6,11.8 0.59,14.55 0.6,5.83 0.59,-0.73 0.6,-27.52 0.59,21.95 0.59,12.78 0.6,-9.38 0.59,23.18 0.6,-15.14 0.59,-38.32 0.6,-18.56 0.59,2.36 0.59,2.29 0.6,-0.7 0.59,-3.29 0.6,-0.24 0.59,0.73 0.6,-3.96 0.59,1.03 0.6,-15.57 0.59,12.51 0.59,21.57 0.6,9.6 0.59,-3.56 0.6,18.87 0.59,-18.95 0.6,-12.47 0.59,14.91 0.6,13.87 0.59,-14.48 0.59,25.49 0.6,-13.73 0.59,-29.07 0.6,9.56 0.59,-15.02 0.6,-12.77 0.59,5.53 0.6,41.39 0.59,2.91 0.59,-14.27 0.6,3.99 0.59,9.37 0.6,7.05 0.59,-2.03 0.6,-6.51 0.59,-11.12 0.59,20.12 0.6,-26.16 0.59,8.54 0.6,-7.89 0.59,6.14 0.6,-20.69 0.59,-4.76 0.6,5.63 0.59,4.08 0.59,9.91 0.6,2.45 0.59,18.37 0.6,-0.82 0.59,4.55 0.6,-31.74 0.59,-13.4 0.6,0.56 0.59,-0.07 0.59,30.83 0.6,43.53 0.59,29.52 0.6,-15.47 0.59,-30.71 0.6,-5.83 0.59,-0.98 0.59,14.68 0.6,-42.02 0.59,12.36 0.6,-8.45 0.59,-10.03 0.6,28.69 0.59,4.14 0.6,-20.19 0.59,11.25 0.59,10.53 0.6,1.27 0.59,-32.99 0.6,-5.32 0.59,-9.38 0.6,5.89 0.59,0.16 0.6,-11.74 0.59,14.11 0.59,-20.61 0.6,5.14 0.59,33.01 0.6,-4.62 0.59,-18.79 0.6,-6.93 0.59,4 0.59,-10.91 0.6,-3.26 0.59,7.88 0.6,5.03 0.59,47.55 0.6,6.78 0.59,-13.73 0.6,-48.23 0.59,14.44 0.59,10.92 0.6,-6.71 0.59,24.63 0.6,-3.25 0.59,-28.35 0.6,0.86 0.59,-6.29 0.6,4.2 0.59,2.91 0.59,19.87 0.6,-10.78 0.59,-1.89 0.6,-7.02 0.59,4.28 0.6,22.04 0.59,-9.22 0.59,-4.56 0.6,-0.09 0.59,21.2 0.6,-25.82 0.59,14.73 0.6,13.54 0.59,21.48 0.6,-14.06 0.59,-1.97 0.59,-4.96 0.6,-36.35 0.59,0.24 0.6,2.92 0.59,2.27 0.6,23.44 0.59,-34.73 0.6,-4.3 0.59,3.16 0.59,-2.24 0.6,20.49 0.59,-5.25 0.6,-4.35 0.59,-10.72 0.6,22.81 0.59,-14.79 0.6,-4.27 0.59,-5.44 0.59,5.75 0.6,-6.55 0.59,8.09 0.6,-5.9 0.59,-3.98 0.6,-4.86 0.59,-6.72 0.59,-0.18 0.6,-2.39 0.59,28.81 0.6,13.39 0.59,7.55 0.6,-5.02 0.59,-3.23 0.6,2.1 0.59,8.81 0.59,-11.12 0.6,-4.18 0.59,-17.68 0.6,-12.12 0.59,-8.44 0.6,-9.01 0.59,10.41 0.6,-4.91 0.59,9.96 0.59,4.07 0.6,4.77 0.59,11.42 0.6,7.76 0.59,-0.7 0.6,-21.29 0.59,6.85 0.59,3.47 0.6,9.61 0.59,11.69 0.6,-20.25 0.59,19.05 0.6,10.77 0.59,4.51 0.6,5.26 0.59,-10.13 0.59,-15.08 0.6,-6.58 0.59,-0.42 0.6,7.9 0.59,-2.64 0.6,-5.6 0.59,36.13 0.6,-0.06 0.59,20.7 0.59,0.87 0.6,0.21 0.59,-15.01 0.6,-8.04 0.59,-30.57 0.6,4.04 0.59,-12.91 0.59,-4.39 0.6,-6.69 0.59,19.54 0.6,-1.5 0.59,1.8 0.6,-19.88 0.59,5.79 0.6,3.22 0.59,5.57 0.59,5.62 0.6,15.3 0.59,-13.96 0.6,5.31 0.59,13.37 0.6,-13.79 0.59,-16.55 0.6,21.76 0.59,-10.55 0.59,1.8 0.6,0.78 0.59,11.07 0.6,-23.4 0.59,31.87 0.6,-5.39 0.59,6.48 0.59,-12.32 0.6,-14.65 0.59,15.05 0.6,-8.19 0.59,15.94 0.6,-16.37 0.59,-11.86 0.6,-7.8 0.59,7.99 0.59,10.07 0.6,-19.91 0.59,7.87 0.6,18.65 0.59,41.08 0.6,-27.16 0.59,2.32 0.6,-13.61 0.59,-28.66 0.59,10.43 0.6,0.39 0.59,0.41 0.6,7 0.59,-7.51 0.6,0.91 0.59,-19.57 0.6,-3.74 0.59,-4.69 0.59,9.26 0.6,5.58 0.59,4.67 0.6,-6.37 0.59,9.13 0.6,-6.98 0.59,1.44 0.59,-1.44 0.6,14.78 0.59,7.66 0.6,-12.1 0.59,15.46 0.6,8.71 0.59,-29.82 0.6,-9.84 0.59,-3.5 0.59,33.53 0.6,23.11 0.59,-27.18 0.6,-8.71 0.59,-11.61 0.6,3.34 0.59,6.93 0.6,-13.7 0.59,5.5 0.59,-7.99 0.6,9.37 0.59,15.14 0.6,-22.19 0.59,-8.14 0.6,10.55 0.59,-1.98 0.59,-3.34 0.6,-16.25 0.59,5.86 0.6,2.05 0.59,16.11 0.6,-10.62 0.59,-0.43 0.6,-1.12 0.59,3.96 0.59,-17.59 0.6,1.28 0.59,6.47 0.6,5.17 0.59,2.53 0.6,-7.13 0.59,-1.17 0.6,-2.59 0.59,3.8 0.59,0.19 0.6,26.69 0.59,16.3 0.6,-24.05 0.59,36.92 0.6,-21.62 0.59,-2.95 0.59,10.05 0.6,-12.68 0.59,4.82 0.6,-6.33 0.59,-7.25 0.6,4.87 0.59,17.53 0.6,-35.69 0.59,15.77 0.59,3.34 0.6,-10.74 0.59,27.85 0.6,-1.66 0.59,-2.05 0.6,-14.56 0.59,-19.19 0.6,6.33 0.59,-6.92 0.59,-2.33 0.6,3.03 0.59,11.78 0.6,4.63 0.59,-17.48 0.6,-2.62 0.59,15.29 0.59,18.21 0.6,38.26 0.59,-22.66 0.6,-7.07 0.59,3.54 0.6,-32.68 0.59,-3.04 0.6,11.98 0.59,12.75 0.59,-30.72 0.6,-8.94 0.59,6.66 0.6,18.19 0.59,1.08 0.6,-11.92 0.59,-2.53 0.6,-7.28 0.59,3.97 0.59,3.67 0.6,-0.29 0.59,-5.07 0.6,1.82 0.59,1.82 0.6,9.7 0.59,-10.56 0.6,10.9 0.59,1 0.59,-3.58 0.6,1.58 0.59,20.01 0.6,9.4 0.59,-26.91 0.6,-9.84 0.59,-8.61 0.59,6.21 0.6,-4.61 0.59,-1.49 0.6,25.22 0.59,-1.28 0.6,-12.28 0.59,12.78 0.6,0.87 0.59,-9.51 0.59,0.84 0.6,-1.4 0.59,-17.36 0.6,9.6 0.59,-0.62 0.6,-5.69" />
        <path
           inkscape:connector-curvature="0"
           id="path4082"
           style="fill:none;stroke:#000000;stroke-width:3.20000005;stroke-linecap:butt;stroke-linejoin:round;stroke-miterlimit:10;stroke-dasharray:12.8, 12.8;stroke-dashoffset:0;stroke-opacity:1"
           d="M 52.64,448.63 H 705.83" />
      </g>
    </g>
    <g
       id="g4108"
       transform="matrix(0.14111111,0,0,-0.14111111,121.75279,101.0257)">
      <path
         inkscape:connector-curvature="0"
         id="path4110"
         style="fill:none;stroke:#000000;stroke-width:1.36000001;stroke-linecap:butt;stroke-linejoin:round;stroke-miterlimit:10;stroke-dasharray:none;stroke-opacity:1"
         d="M 52.64,50.2 V 547.65" />
    </g>
    <g
       id="g4116"
       transform="matrix(0.14111111,0,0,-0.14111111,121.75279,101.0257)">
      <text
         y="-62.844139"
         x="33.320885"
         id="text4120"
         style="font-variant:normal;font-weight:bold;font-size:28px;font-family:Helvetica;-inkscape-font-specification:Helvetica-Bold;writing-mode:lr-tb;fill:#000000;fill-opacity:1;fill-rule:nonzero;stroke:none;stroke-width:2"
         transform="scale(1,-1)">
        <tspan
           style="stroke-width:2"
           id="tspan4118"
           y="-62.844139"
           x="33.320885">0</tspan>
      </text>
      <text
         y="-250.75414"
         x="19.253132"
         id="text4128"
         style="font-variant:normal;font-weight:bold;font-size:28px;font-family:Helvetica;-inkscape-font-specification:Helvetica-Bold;writing-mode:lr-tb;fill:#000000;fill-opacity:1;fill-rule:nonzero;stroke:none;stroke-width:2"
         transform="scale(1,-1)">
        <tspan
           style="stroke-width:2"
           id="tspan4126"
           sodipodi:role="line"
           y="-250.75414"
           x="19.253132 34.821129">10</tspan>
      </text>
      <text
         y="-438.66415"
         x="19.632526"
         id="text4136"
         style="font-variant:normal;font-weight:bold;font-size:28px;font-family:Helvetica;-inkscape-font-specification:Helvetica-Bold;writing-mode:lr-tb;fill:#000000;fill-opacity:1;fill-rule:nonzero;stroke:none;stroke-width:2"
         transform="scale(1,-1)">
        <tspan
           style="stroke-width:2"
           id="tspan4134"
           sodipodi:role="line"
           y="-438.66415"
           x="19.632526 35.200523">20</tspan>
      </text>
    </g>
    <g
       id="g4144"
       transform="matrix(0.14111111,0,0,-0.14111111,121.75279,101.0257)">
      <path
         inkscape:connector-curvature="0"
         id="path4146"
         style="fill:none;stroke:#000000;stroke-width:1.36000001;stroke-linecap:butt;stroke-linejoin:round;stroke-miterlimit:10;stroke-dasharray:none;stroke-opacity:1"
         d="m 49.15,72.81 h 3.49" />
      <path
         inkscape:connector-curvature="0"
         id="path4148"
         style="fill:none;stroke:#000000;stroke-width:1.36000001;stroke-linecap:butt;stroke-linejoin:round;stroke-miterlimit:10;stroke-dasharray:none;stroke-opacity:1"
         d="m 49.15,166.77 h 3.49" />
      <path
         inkscape:connector-curvature="0"
         id="path4150"
         style="fill:none;stroke:#000000;stroke-width:1.36000001;stroke-linecap:butt;stroke-linejoin:round;stroke-miterlimit:10;stroke-dasharray:none;stroke-opacity:1"
         d="m 49.15,260.72 h 3.49" />
      <path
         inkscape:connector-curvature="0"
         id="path4152"
         style="fill:none;stroke:#000000;stroke-width:1.36000001;stroke-linecap:butt;stroke-linejoin:round;stroke-miterlimit:10;stroke-dasharray:none;stroke-opacity:1"
         d="m 49.15,354.68 h 3.49" />
      <path
         inkscape:connector-curvature="0"
         id="path4154"
         style="fill:none;stroke:#000000;stroke-width:1.36000001;stroke-linecap:butt;stroke-linejoin:round;stroke-miterlimit:10;stroke-dasharray:none;stroke-opacity:1"
         d="m 49.15,448.63 h 3.49" />
      <path
         inkscape:connector-curvature="0"
         id="path4156"
         style="fill:none;stroke:#000000;stroke-width:1.36000001;stroke-linecap:butt;stroke-linejoin:round;stroke-miterlimit:10;stroke-dasharray:none;stroke-opacity:1"
         d="m 49.15,542.59 h 3.49" />
    </g>
    <g
       id="g4170"
       transform="matrix(0.14111111,0,0,-0.14111111,121.75279,101.0257)">
      <path
         inkscape:connector-curvature="0"
         id="path4172"
         style="fill:none;stroke:#000000;stroke-width:1.36000001;stroke-linecap:butt;stroke-linejoin:round;stroke-miterlimit:10;stroke-dasharray:none;stroke-opacity:1"
         d="M 52.64,50.2 H 705.83" />
    </g>
    <g
       id="g4178"
       transform="matrix(0.14111111,0,0,-0.14111111,121.75279,101.0257)">
      <path
         inkscape:connector-curvature="0"
         id="path4180"
         style="fill:none;stroke:#000000;stroke-width:1.36000001;stroke-linecap:butt;stroke-linejoin:round;stroke-miterlimit:10;stroke-dasharray:none;stroke-opacity:1"
         d="M 81.73,46.71 V 50.2" />
      <path
         inkscape:connector-curvature="0"
         id="path4182"
         style="fill:none;stroke:#000000;stroke-width:1.36000001;stroke-linecap:butt;stroke-linejoin:round;stroke-miterlimit:10;stroke-dasharray:none;stroke-opacity:1"
         d="M 200.61,46.71 V 50.2" />
      <path
         inkscape:connector-curvature="0"
         id="path4184"
         style="fill:none;stroke:#000000;stroke-width:1.36000001;stroke-linecap:butt;stroke-linejoin:round;stroke-miterlimit:10;stroke-dasharray:none;stroke-opacity:1"
         d="M 319.49,46.71 V 50.2" />
      <path
         inkscape:connector-curvature="0"
         id="path4186"
         style="fill:none;stroke:#000000;stroke-width:1.36000001;stroke-linecap:butt;stroke-linejoin:round;stroke-miterlimit:10;stroke-dasharray:none;stroke-opacity:1"
         d="M 438.37,46.71 V 50.2" />
      <path
         inkscape:connector-curvature="0"
         id="path4188"
         style="fill:none;stroke:#000000;stroke-width:1.36000001;stroke-linecap:butt;stroke-linejoin:round;stroke-miterlimit:10;stroke-dasharray:none;stroke-opacity:1"
         d="M 557.26,46.71 V 50.2" />
      <path
         inkscape:connector-curvature="0"
         id="path4190"
         style="fill:none;stroke:#000000;stroke-width:1.36000001;stroke-linecap:butt;stroke-linejoin:round;stroke-miterlimit:10;stroke-dasharray:none;stroke-opacity:1"
         d="M 676.14,46.71 V 50.2" />
    </g>
    <g
       id="g4194"
       transform="matrix(0.14111111,0,0,-0.14111111,121.75279,101.0257)">
      <text
         y="-22.893135"
         x="75.919098"
         id="text4198"
         style="font-variant:normal;font-weight:bold;font-size:21px;font-family:Helvetica;-inkscape-font-specification:Helvetica-Bold;writing-mode:lr-tb;fill:#000000;fill-opacity:1;fill-rule:nonzero;stroke:none;stroke-width:1.5"
         transform="scale(1,-1)">
        <tspan
           style="stroke-width:1.5"
           id="tspan4196"
           y="-22.893135"
           x="75.919098">0</tspan>
      </text>
      <text
         y="-22.184471"
         x="182.99722"
         id="text4202"
         style="font-variant:normal;font-weight:bold;font-size:21px;font-family:Helvetica;-inkscape-font-specification:Helvetica-Bold;writing-mode:lr-tb;fill:#000000;fill-opacity:1;fill-rule:nonzero;stroke:none;stroke-width:1.5"
         transform="scale(1,-1)">
        <tspan
           style="stroke-width:1.5"
           id="tspan4200"
           sodipodi:role="line"
           y="-22.184471"
           x="182.99722 194.67322 206.34921">100</tspan>
      </text>
      <text
         y="-23.601793"
         x="302.06693"
         id="text4206"
         style="font-variant:normal;font-weight:bold;font-size:21px;font-family:Helvetica;-inkscape-font-specification:Helvetica-Bold;writing-mode:lr-tb;fill:#000000;fill-opacity:1;fill-rule:nonzero;stroke:none;stroke-width:1.5"
         transform="scale(1,-1)">
        <tspan
           style="stroke-width:1.5"
           id="tspan4204"
           sodipodi:role="line"
           y="-23.601793"
           x="302.06693 313.74292 325.41891">200</tspan>
      </text>
      <text
         y="-24.310455"
         x="420.9025"
         id="text4210"
         style="font-variant:normal;font-weight:bold;font-size:21px;font-family:Helvetica;-inkscape-font-specification:Helvetica-Bold;writing-mode:lr-tb;fill:#000000;fill-opacity:1;fill-rule:nonzero;stroke:none;stroke-width:1.5"
         transform="scale(1,-1)">
        <tspan
           style="stroke-width:1.5"
           id="tspan4208"
           sodipodi:role="line"
           y="-24.310455"
           x="420.9025 432.57849 444.25449">300</tspan>
      </text>
      <text
         y="-25.019119"
         x="539.84912"
         id="text4214"
         style="font-variant:normal;font-weight:bold;font-size:21px;font-family:Helvetica;-inkscape-font-specification:Helvetica-Bold;writing-mode:lr-tb;fill:#000000;fill-opacity:1;fill-rule:nonzero;stroke:none;stroke-width:1.5"
         transform="scale(1,-1)">
        <tspan
           style="stroke-width:1.5"
           id="tspan4212"
           sodipodi:role="line"
           y="-25.019119"
           x="539.84912 551.52515 563.20111">400</tspan>
      </text>
      <text
         y="-25.727777"
         x="658.63855"
         id="text4218"
         style="font-variant:normal;font-weight:bold;font-size:21px;font-family:Helvetica;-inkscape-font-specification:Helvetica-Bold;writing-mode:lr-tb;fill:#000000;fill-opacity:1;fill-rule:nonzero;stroke:none;stroke-width:1.5"
         transform="scale(1,-1)">
        <tspan
           style="stroke-width:1.5"
           id="tspan4216"
           sodipodi:role="line"
           y="-25.727777"
           x="658.63855 670.31458 681.99054">500</tspan>
      </text>
    </g>
    <text
       id="text6730"
       y="102.4257"
       x="167.72661"
       style="font-style:normal;font-weight:normal;font-size:10.58333302px;line-height:1.25;font-family:sans-serif;letter-spacing:0px;word-spacing:0px;fill:#000000;fill-opacity:1;stroke:none;stroke-width:0.26458332"
       xml:space="preserve"><tspan
         style="font-style:normal;font-variant:normal;font-weight:normal;font-stretch:normal;font-size:5.29166651px;font-family:Arial;-inkscape-font-specification:'Arial, Normal';font-variant-ligatures:normal;font-variant-caps:normal;font-variant-numeric:normal;font-feature-settings:normal;text-align:start;writing-mode:lr-tb;text-anchor:start;stroke-width:0.26458332"
         y="102.4257"
         x="167.72661"
         id="tspan6728"
         sodipodi:role="line">Time (ms)</tspan></text>
    <text
       transform="rotate(-90)"
       id="text6734"
       y="122.67332"
       x="-74.288536"
       style="font-style:normal;font-variant:normal;font-weight:normal;font-stretch:normal;font-size:5.29166651px;line-height:1.25;font-family:Arial;-inkscape-font-specification:'Arial, Normal';font-variant-ligatures:normal;font-variant-caps:normal;font-variant-numeric:normal;font-feature-settings:normal;text-align:start;letter-spacing:0px;word-spacing:0px;writing-mode:lr-tb;text-anchor:start;fill:#000000;fill-opacity:1;stroke:none;stroke-width:0.26458332"
       xml:space="preserve"><tspan
         style="font-style:normal;font-variant:normal;font-weight:normal;font-stretch:normal;font-size:5.29166651px;font-family:Arial;-inkscape-font-specification:'Arial, Normal';font-variant-ligatures:normal;font-variant-caps:normal;font-variant-numeric:normal;font-feature-settings:normal;text-align:start;writing-mode:lr-tb;text-anchor:start;stroke-width:0.26458332"
         y="122.67332"
         x="-74.288536"
         id="tspan6732"
         sodipodi:role="line">Firing rate (Hz)</tspan></text>
    <text
       id="text2740-5"
       y="27.347319"
       x="121.45217"
       style="font-style:normal;font-variant:normal;font-weight:normal;font-stretch:normal;font-size:10.58333302px;line-height:1.25;font-family:sans-serif;-inkscape-font-specification:'sans-serif, Normal';font-variant-ligatures:normal;font-variant-caps:normal;font-variant-numeric:normal;font-feature-settings:normal;text-align:start;letter-spacing:0px;word-spacing:0px;writing-mode:lr-tb;text-anchor:start;fill:#000000;fill-opacity:1;stroke:none;stroke-width:0.26458332"
       xml:space="preserve"><tspan
         y="27.347319"
         x="121.45217"
         id="tspan6310"
         sodipodi:role="line"
         style="stroke-width:0.26458332">B</tspan></text>
    <g
       id="g3131"
       ns1:jacobian_sqrt="1.580444"
       ns1:alignment="middle center"
       ns1:scale="4.4800000777"
       ns1:preamble="C:\\Users\\kevin\\AppData\\Roaming\\inkscape\\extensions\\default_packages.tex"
       ns1:text="Decision threshold $z$"
       ns1:pdfconverter="pdf2svg"
       ns1:texconverter="pdflatex"
       ns1:version="0.8.1"
       transform="matrix(0.790222,0,0,0.790222,15.29949,-71.885655)">
      <g
         id="surface1">
        <g
           id="g3104"
           style="fill:#000000;fill-opacity:1">
          <path
             id="path3088"
             transform="translate(148.712,134.765)"
             d="M 0.34375,-6.8125 V -6.5 h 0.25 c 0.765625,0 0.78125,0.109375 0.78125,0.46875 v 5.25 c 0,0.359375 -0.015625,0.46875 -0.78125,0.46875 h -0.25 V 0 H 4 C 5.671875,0 7.046875,-1.46875 7.046875,-3.34375 7.046875,-5.25 5.703125,-6.8125 4,-6.8125 Z m 2.375,6.5 C 2.25,-0.3125 2.234375,-0.375 2.234375,-0.703125 V -6.09375 C 2.234375,-6.4375 2.25,-6.5 2.71875,-6.5 h 1 c 0.625,0 1.3125,0.21875 1.8125,0.921875 0.4375,0.59375 0.515625,1.453125 0.515625,2.234375 0,1.09375 -0.1875,1.703125 -0.546875,2.1875 -0.203125,0.265625 -0.765625,0.84375 -1.765625,0.84375 z m 0,0"
             style="stroke:none;stroke-width:0"
             inkscape:connector-curvature="0" />
          <path
             id="path3090"
             transform="translate(156.32243,134.765)"
             d="M 1.109375,-2.515625 C 1.171875,-4 2.015625,-4.25 2.359375,-4.25 c 1.015625,0 1.125,1.34375 1.125,1.734375 z m 0,0.21875 h 2.78125 c 0.21875,0 0.25,0 0.25,-0.21875 0,-0.984375 -0.546875,-1.953125 -1.78125,-1.953125 -1.15625,0 -2.078125,1.03125 -2.078125,2.28125 0,1.328125 1.046875,2.296875 2.1875,2.296875 C 3.6875,0.109375 4.140625,-1 4.140625,-1.1875 4.140625,-1.28125 4.0625,-1.3125 4,-1.3125 c -0.078125,0 -0.109375,0.0625 -0.125,0.140625 -0.34375,1.03125 -1.25,1.03125 -1.34375,1.03125 -0.5,0 -0.890625,-0.296875 -1.125,-0.671875 -0.296875,-0.46875 -0.296875,-1.125 -0.296875,-1.484375 z m 0,0"
             style="stroke:none;stroke-width:0"
             inkscape:connector-curvature="0" />
          <path
             id="path3092"
             transform="translate(160.74981,134.765)"
             d="m 1.171875,-2.171875 c 0,-1.625 0.8125,-2.046875 1.34375,-2.046875 0.09375,0 0.71875,0.015625 1.0625,0.375 -0.40625,0.03125 -0.46875,0.328125 -0.46875,0.453125 0,0.265625 0.1875,0.453125 0.453125,0.453125 0.265625,0 0.46875,-0.15625 0.46875,-0.46875 0,-0.671875 -0.765625,-1.0625 -1.53125,-1.0625 -1.25,0 -2.15625,1.078125 -2.15625,2.3125 0,1.28125 0.984375,2.265625 2.140625,2.265625 1.328125,0 1.65625,-1.203125 1.65625,-1.296875 0,-0.09375 -0.109375,-0.09375 -0.140625,-0.09375 -0.078125,0 -0.109375,0.03125 -0.125,0.09375 -0.28125,0.921875 -0.9375,1.046875 -1.296875,1.046875 -0.53125,0 -1.40625,-0.421875 -1.40625,-2.03125 z m 0,0"
             style="stroke:none;stroke-width:0"
             inkscape:connector-curvature="0" />
          <path
             id="path3094"
             transform="translate(165.17719,134.765)"
             d="M 1.765625,-4.40625 0.375,-4.296875 v 0.3125 c 0.640625,0 0.734375,0.0625 0.734375,0.546875 V -0.75 c 0,0.4375 -0.109375,0.4375 -0.78125,0.4375 V 0 C 0.640625,-0.015625 1.1875,-0.03125 1.421875,-0.03125 1.78125,-0.03125 2.125,-0.015625 2.46875,0 v -0.3125 c -0.671875,0 -0.703125,-0.046875 -0.703125,-0.4375 z m 0.03125,-1.734375 c 0,-0.3125 -0.234375,-0.53125 -0.515625,-0.53125 -0.3125,0 -0.53125,0.265625 -0.53125,0.53125 0,0.265625 0.21875,0.53125 0.53125,0.53125 0.28125,0 0.515625,-0.21875 0.515625,-0.53125 z m 0,0"
             style="stroke:none;stroke-width:0"
             inkscape:connector-curvature="0" />
          <path
             id="path3096"
             transform="translate(167.9448,134.765)"
             d="m 2.078125,-1.9375 c 0.21875,0.046875 1.03125,0.203125 1.03125,0.921875 0,0.5 -0.34375,0.90625 -1.125,0.90625 -0.84375,0 -1.203125,-0.5625 -1.390625,-1.421875 C 0.5625,-1.65625 0.5625,-1.6875 0.453125,-1.6875 c -0.125,0 -0.125,0.0625 -0.125,0.234375 V -0.125 c 0,0.171875 0,0.234375 0.109375,0.234375 0.046875,0 0.0625,-0.015625 0.25,-0.203125 0.015625,-0.015625 0.015625,-0.03125 0.203125,-0.21875 0.4375,0.40625 0.890625,0.421875 1.09375,0.421875 1.140625,0 1.609375,-0.671875 1.609375,-1.390625 0,-0.515625 -0.296875,-0.828125 -0.421875,-0.9375 C 2.84375,-2.546875 2.453125,-2.625 2.03125,-2.703125 1.46875,-2.8125 0.8125,-2.9375 0.8125,-3.515625 c 0,-0.359375 0.25,-0.765625 1.109375,-0.765625 1.09375,0 1.15625,0.90625 1.171875,1.203125 0,0.09375 0.09375,0.09375 0.109375,0.09375 0.140625,0 0.140625,-0.046875 0.140625,-0.234375 v -1.015625 c 0,-0.15625 0,-0.234375 -0.109375,-0.234375 -0.046875,0 -0.078125,0 -0.203125,0.125 -0.03125,0.03125 -0.125,0.125 -0.171875,0.15625 -0.375,-0.28125 -0.78125,-0.28125 -0.9375,-0.28125 -1.21875,0 -1.59375,0.671875 -1.59375,1.234375 0,0.34375 0.15625,0.625 0.421875,0.84375 0.328125,0.25 0.609375,0.3125 1.328125,0.453125 z m 0,0"
             style="stroke:none;stroke-width:0"
             inkscape:connector-curvature="0" />
          <path
             id="path3098"
             transform="translate(171.87405,134.765)"
             d="M 1.765625,-4.40625 0.375,-4.296875 v 0.3125 c 0.640625,0 0.734375,0.0625 0.734375,0.546875 V -0.75 c 0,0.4375 -0.109375,0.4375 -0.78125,0.4375 V 0 C 0.640625,-0.015625 1.1875,-0.03125 1.421875,-0.03125 1.78125,-0.03125 2.125,-0.015625 2.46875,0 v -0.3125 c -0.671875,0 -0.703125,-0.046875 -0.703125,-0.4375 z m 0.03125,-1.734375 c 0,-0.3125 -0.234375,-0.53125 -0.515625,-0.53125 -0.3125,0 -0.53125,0.265625 -0.53125,0.53125 0,0.265625 0.21875,0.53125 0.53125,0.53125 0.28125,0 0.515625,-0.21875 0.515625,-0.53125 z m 0,0"
             style="stroke:none;stroke-width:0"
             inkscape:connector-curvature="0" />
          <path
             id="path3100"
             transform="translate(174.64166,134.765)"
             d="M 4.6875,-2.140625 C 4.6875,-3.40625 3.703125,-4.46875 2.5,-4.46875 c -1.25,0 -2.21875,1.09375 -2.21875,2.328125 0,1.296875 1.03125,2.25 2.203125,2.25 1.203125,0 2.203125,-0.984375 2.203125,-2.25 z m -2.1875,2 c -0.4375,0 -0.875,-0.203125 -1.140625,-0.671875 -0.25,-0.4375 -0.25,-1.046875 -0.25,-1.40625 0,-0.390625 0,-0.921875 0.234375,-1.359375 C 1.609375,-4.03125 2.078125,-4.25 2.484375,-4.25 c 0.4375,0 0.859375,0.21875 1.125,0.65625 0.265625,0.421875 0.265625,1 0.265625,1.375 0,0.359375 0,0.90625 -0.21875,1.34375 C 3.421875,-0.421875 2.984375,-0.140625 2.5,-0.140625 Z m 0,0"
             style="stroke:none;stroke-width:0"
             inkscape:connector-curvature="0" />
          <path
             id="path3102"
             transform="translate(179.62296,134.765)"
             d="M 1.09375,-3.421875 V -0.75 c 0,0.4375 -0.109375,0.4375 -0.78125,0.4375 V 0 c 0.359375,-0.015625 0.859375,-0.03125 1.140625,-0.03125 0.25,0 0.765625,0.015625 1.109375,0.03125 v -0.3125 c -0.671875,0 -0.78125,0 -0.78125,-0.4375 V -2.59375 C 1.78125,-3.625 2.5,-4.1875 3.125,-4.1875 c 0.640625,0 0.75,0.53125 0.75,1.109375 V -0.75 c 0,0.4375 -0.109375,0.4375 -0.78125,0.4375 V 0 c 0.34375,-0.015625 0.859375,-0.03125 1.125,-0.03125 0.25,0 0.78125,0.015625 1.109375,0.03125 v -0.3125 c -0.515625,0 -0.765625,0 -0.765625,-0.296875 v -1.90625 c 0,-0.859375 0,-1.15625 -0.3125,-1.515625 -0.140625,-0.171875 -0.46875,-0.375 -1.046875,-0.375 C 2.46875,-4.40625 2,-3.984375 1.71875,-3.359375 V -4.40625 L 0.3125,-4.296875 v 0.3125 c 0.703125,0 0.78125,0.0625 0.78125,0.5625 z m 0,0"
             style="stroke:none;stroke-width:0"
             inkscape:connector-curvature="0" />
        </g>
        <g
           id="g3124"
           style="fill:#000000;fill-opacity:1">
          <path
             id="path3106"
             transform="translate(188.47572,134.765)"
             d="m 1.71875,-3.984375 h 1.4375 v -0.3125 H 1.71875 V -6.125 h -0.25 c 0,0.8125 -0.296875,1.875 -1.28125,1.921875 v 0.21875 h 0.84375 v 2.75 c 0,1.21875 0.9375,1.34375 1.296875,1.34375 0.703125,0 0.984375,-0.703125 0.984375,-1.34375 v -0.5625 h -0.25 V -1.25 c 0,0.734375 -0.296875,1.109375 -0.671875,1.109375 -0.671875,0 -0.671875,-0.90625 -0.671875,-1.078125 z m 0,0"
             style="stroke:none;stroke-width:0"
             inkscape:connector-curvature="0" />
          <path
             id="path3108"
             transform="translate(192.35018,134.765)"
             d="m 1.09375,-0.75 c 0,0.4375 -0.109375,0.4375 -0.78125,0.4375 V 0 c 0.359375,-0.015625 0.859375,-0.03125 1.140625,-0.03125 0.25,0 0.765625,0.015625 1.109375,0.03125 v -0.3125 c -0.671875,0 -0.78125,0 -0.78125,-0.4375 V -2.59375 C 1.78125,-3.625 2.5,-4.1875 3.125,-4.1875 c 0.640625,0 0.75,0.53125 0.75,1.109375 V -0.75 c 0,0.4375 -0.109375,0.4375 -0.78125,0.4375 V 0 c 0.34375,-0.015625 0.859375,-0.03125 1.125,-0.03125 0.25,0 0.78125,0.015625 1.109375,0.03125 v -0.3125 c -0.515625,0 -0.765625,0 -0.765625,-0.296875 v -1.90625 c 0,-0.859375 0,-1.15625 -0.3125,-1.515625 -0.140625,-0.171875 -0.46875,-0.375 -1.046875,-0.375 -0.84375,0 -1.28125,0.59375 -1.453125,0.984375 v -3.5 L 0.3125,-6.8125 V -6.5 c 0.703125,0 0.78125,0.0625 0.78125,0.5625 z m 0,0"
             style="stroke:none;stroke-width:0"
             inkscape:connector-curvature="0" />
          <path
             id="path3110"
             transform="translate(197.8854,134.765)"
             d="M 1.671875,-3.3125 V -4.40625 L 0.28125,-4.296875 v 0.3125 c 0.703125,0 0.78125,0.0625 0.78125,0.5625 V -0.75 c 0,0.4375 -0.109375,0.4375 -0.78125,0.4375 V 0 c 0.390625,-0.015625 0.859375,-0.03125 1.140625,-0.03125 0.390625,0 0.859375,0 1.265625,0.03125 V -0.3125 H 2.46875 c -0.734375,0 -0.75,-0.109375 -0.75,-0.46875 V -2.3125 c 0,-0.984375 0.421875,-1.875 1.171875,-1.875 0.0625,0 0.09375,0 0.109375,0.015625 -0.03125,0 -0.234375,0.125 -0.234375,0.390625 0,0.265625 0.21875,0.421875 0.4375,0.421875 0.171875,0 0.421875,-0.125 0.421875,-0.4375 0,-0.3125 -0.3125,-0.609375 -0.734375,-0.609375 -0.734375,0 -1.09375,0.671875 -1.21875,1.09375 z m 0,0"
             style="stroke:none;stroke-width:0"
             inkscape:connector-curvature="0" />
          <path
             id="path3112"
             transform="translate(201.78775,134.765)"
             d="M 1.109375,-2.515625 C 1.171875,-4 2.015625,-4.25 2.359375,-4.25 c 1.015625,0 1.125,1.34375 1.125,1.734375 z m 0,0.21875 h 2.78125 c 0.21875,0 0.25,0 0.25,-0.21875 0,-0.984375 -0.546875,-1.953125 -1.78125,-1.953125 -1.15625,0 -2.078125,1.03125 -2.078125,2.28125 0,1.328125 1.046875,2.296875 2.1875,2.296875 C 3.6875,0.109375 4.140625,-1 4.140625,-1.1875 4.140625,-1.28125 4.0625,-1.3125 4,-1.3125 c -0.078125,0 -0.109375,0.0625 -0.125,0.140625 -0.34375,1.03125 -1.25,1.03125 -1.34375,1.03125 -0.5,0 -0.890625,-0.296875 -1.125,-0.671875 -0.296875,-0.46875 -0.296875,-1.125 -0.296875,-1.484375 z m 0,0"
             style="stroke:none;stroke-width:0"
             inkscape:connector-curvature="0" />
          <path
             id="path3114"
             transform="translate(206.21513,134.765)"
             d="m 2.078125,-1.9375 c 0.21875,0.046875 1.03125,0.203125 1.03125,0.921875 0,0.5 -0.34375,0.90625 -1.125,0.90625 -0.84375,0 -1.203125,-0.5625 -1.390625,-1.421875 C 0.5625,-1.65625 0.5625,-1.6875 0.453125,-1.6875 c -0.125,0 -0.125,0.0625 -0.125,0.234375 V -0.125 c 0,0.171875 0,0.234375 0.109375,0.234375 0.046875,0 0.0625,-0.015625 0.25,-0.203125 0.015625,-0.015625 0.015625,-0.03125 0.203125,-0.21875 0.4375,0.40625 0.890625,0.421875 1.09375,0.421875 1.140625,0 1.609375,-0.671875 1.609375,-1.390625 0,-0.515625 -0.296875,-0.828125 -0.421875,-0.9375 C 2.84375,-2.546875 2.453125,-2.625 2.03125,-2.703125 1.46875,-2.8125 0.8125,-2.9375 0.8125,-3.515625 c 0,-0.359375 0.25,-0.765625 1.109375,-0.765625 1.09375,0 1.15625,0.90625 1.171875,1.203125 0,0.09375 0.09375,0.09375 0.109375,0.09375 0.140625,0 0.140625,-0.046875 0.140625,-0.234375 v -1.015625 c 0,-0.15625 0,-0.234375 -0.109375,-0.234375 -0.046875,0 -0.078125,0 -0.203125,0.125 -0.03125,0.03125 -0.125,0.125 -0.171875,0.15625 -0.375,-0.28125 -0.78125,-0.28125 -0.9375,-0.28125 -1.21875,0 -1.59375,0.671875 -1.59375,1.234375 0,0.34375 0.15625,0.625 0.421875,0.84375 0.328125,0.25 0.609375,0.3125 1.328125,0.453125 z m 0,0"
             style="stroke:none;stroke-width:0"
             inkscape:connector-curvature="0" />
          <path
             id="path3116"
             transform="translate(210.14438,134.765)"
             d="m 1.09375,-0.75 c 0,0.4375 -0.109375,0.4375 -0.78125,0.4375 V 0 c 0.359375,-0.015625 0.859375,-0.03125 1.140625,-0.03125 0.25,0 0.765625,0.015625 1.109375,0.03125 v -0.3125 c -0.671875,0 -0.78125,0 -0.78125,-0.4375 V -2.59375 C 1.78125,-3.625 2.5,-4.1875 3.125,-4.1875 c 0.640625,0 0.75,0.53125 0.75,1.109375 V -0.75 c 0,0.4375 -0.109375,0.4375 -0.78125,0.4375 V 0 c 0.34375,-0.015625 0.859375,-0.03125 1.125,-0.03125 0.25,0 0.78125,0.015625 1.109375,0.03125 v -0.3125 c -0.515625,0 -0.765625,0 -0.765625,-0.296875 v -1.90625 c 0,-0.859375 0,-1.15625 -0.3125,-1.515625 -0.140625,-0.171875 -0.46875,-0.375 -1.046875,-0.375 -0.84375,0 -1.28125,0.59375 -1.453125,0.984375 v -3.5 L 0.3125,-6.8125 V -6.5 c 0.703125,0 0.78125,0.0625 0.78125,0.5625 z m 0,0"
             style="stroke:none;stroke-width:0"
             inkscape:connector-curvature="0" />
          <path
             id="path3118"
             transform="translate(215.6796,134.765)"
             d="M 4.6875,-2.140625 C 4.6875,-3.40625 3.703125,-4.46875 2.5,-4.46875 c -1.25,0 -2.21875,1.09375 -2.21875,2.328125 0,1.296875 1.03125,2.25 2.203125,2.25 1.203125,0 2.203125,-0.984375 2.203125,-2.25 z m -2.1875,2 c -0.4375,0 -0.875,-0.203125 -1.140625,-0.671875 -0.25,-0.4375 -0.25,-1.046875 -0.25,-1.40625 0,-0.390625 0,-0.921875 0.234375,-1.359375 C 1.609375,-4.03125 2.078125,-4.25 2.484375,-4.25 c 0.4375,0 0.859375,0.21875 1.125,0.65625 0.265625,0.421875 0.265625,1 0.265625,1.375 0,0.359375 0,0.90625 -0.21875,1.34375 C 3.421875,-0.421875 2.984375,-0.140625 2.5,-0.140625 Z m 0,0"
             style="stroke:none;stroke-width:0"
             inkscape:connector-curvature="0" />
          <path
             id="path3120"
             transform="translate(220.6609,134.765)"
             d="M 1.765625,-6.921875 0.328125,-6.8125 V -6.5 c 0.703125,0 0.78125,0.0625 0.78125,0.5625 V -0.75 c 0,0.4375 -0.109375,0.4375 -0.78125,0.4375 V 0 C 0.65625,-0.015625 1.1875,-0.03125 1.4375,-0.03125 c 0.25,0 0.734375,0.015625 1.109375,0.03125 v -0.3125 c -0.671875,0 -0.78125,0 -0.78125,-0.4375 z m 0,0"
             style="stroke:none;stroke-width:0"
             inkscape:connector-curvature="0" />
          <path
             id="path3122"
             transform="translate(223.42851,134.765)"
             d="m 3.78125,-0.546875 v 0.65625 L 5.25,0 v -0.3125 c -0.6875,0 -0.78125,-0.0625 -0.78125,-0.5625 V -6.921875 L 3.046875,-6.8125 V -6.5 c 0.6875,0 0.765625,0.0625 0.765625,0.5625 v 2.15625 c -0.28125,-0.359375 -0.71875,-0.625 -1.25,-0.625 -1.171875,0 -2.21875,0.984375 -2.21875,2.265625 0,1.265625 0.96875,2.25 2.109375,2.25 0.640625,0 1.078125,-0.34375 1.328125,-0.65625 z m 0,-2.671875 v 2.046875 c 0,0.171875 0,0.1875 -0.109375,0.359375 C 3.375,-0.328125 2.9375,-0.109375 2.5,-0.109375 2.046875,-0.109375 1.6875,-0.375 1.453125,-0.75 1.203125,-1.15625 1.171875,-1.71875 1.171875,-2.140625 1.171875,-2.5 1.1875,-3.09375 1.46875,-3.546875 1.6875,-3.859375 2.0625,-4.1875 2.609375,-4.1875 c 0.34375,0 0.765625,0.15625 1.0625,0.59375 0.109375,0.171875 0.109375,0.1875 0.109375,0.375 z m 0,0"
             style="stroke:none;stroke-width:0"
             inkscape:connector-curvature="0" />
        </g>
        <g
           id="g3128"
           style="fill:#000000;fill-opacity:1">
          <path
             id="path3126"
             transform="translate(232.288,134.765)"
             d="m 1.328125,-0.828125 c 0.53125,-0.578125 0.828125,-0.828125 1.1875,-1.140625 0,0 0.609375,-0.53125 0.96875,-0.890625 C 4.4375,-3.78125 4.65625,-4.265625 4.65625,-4.3125 c 0,-0.09375 -0.09375,-0.09375 -0.109375,-0.09375 -0.078125,0 -0.09375,0.015625 -0.15625,0.109375 -0.296875,0.484375 -0.5,0.640625 -0.734375,0.640625 -0.25,0 -0.359375,-0.15625 -0.515625,-0.328125 -0.1875,-0.21875 -0.359375,-0.421875 -0.6875,-0.421875 -0.75,0 -1.203125,0.921875 -1.203125,1.140625 0,0.046875 0.03125,0.109375 0.109375,0.109375 0.09375,0 0.109375,-0.046875 0.140625,-0.109375 0.1875,-0.46875 0.765625,-0.46875 0.84375,-0.46875 0.203125,0 0.390625,0.0625 0.625,0.140625 0.40625,0.15625 0.515625,0.15625 0.765625,0.15625 -0.359375,0.421875 -1.1875,1.140625 -1.375,1.296875 l -0.90625,0.84375 C 0.78125,-0.625 0.421875,-0.0625 0.421875,0.015625 c 0,0.09375 0.109375,0.09375 0.125,0.09375 0.078125,0 0.09375,-0.015625 0.15625,-0.125 0.234375,-0.359375 0.53125,-0.625 0.859375,-0.625 0.21875,0 0.328125,0.09375 0.578125,0.375 0.15625,0.21875 0.34375,0.375 0.625,0.375 1,0 1.578125,-1.265625 1.578125,-1.53125 0,-0.046875 -0.046875,-0.109375 -0.125,-0.109375 -0.09375,0 -0.109375,0.0625 -0.140625,0.140625 C 3.84375,-0.75 3.203125,-0.5625 2.875,-0.5625 c -0.1875,0 -0.375,-0.0625 -0.578125,-0.125 -0.34375,-0.125 -0.5,-0.171875 -0.703125,-0.171875 -0.015625,0 -0.171875,0 -0.265625,0.03125 z m 0,0"
             style="stroke:none;stroke-width:0"
             inkscape:connector-curvature="0" />
        </g>
      </g>
    </g>
    <path
       sodipodi:nodetypes="cc"
       inkscape:connector-curvature="0"
       id="path4122-3-5"
       d="M 36.348656,110.55395 V 92.250975"
       style="opacity:1;fill:#000080;fill-opacity:1;stroke:#000080;stroke-width:3.34028769;stroke-linecap:butt;stroke-linejoin:miter;stroke-miterlimit:10;stroke-dasharray:none;stroke-opacity:1;marker-end:url(#TriangleOutS-0-0)" />
    <g
       transform="matrix(0.790222,0,0,0.790222,-90.835313,-1.3989235)"
       ns1:version="0.8.1"
       ns1:texconverter="pdflatex"
       ns1:pdfconverter="pdf2svg"
       ns1:text="$I_1$"
       ns1:preamble="C:\\Users\\kevin\\AppData\\Roaming\\inkscape\\extensions\\default_packages.tex"
       ns1:scale="4.4800000777"
       ns1:alignment="middle center"
       inkscapeversion="0.92.2"
       ns1:jacobian_sqrt="1.580444"
       id="g3762">
      <g
         id="g3760">
        <g
           style="fill:#000000;fill-opacity:1"
           id="g3754">
          <path
             inkscape:connector-curvature="0"
             style="stroke:none;stroke-width:0"
             d="M 3.734375,-6.046875 C 3.8125,-6.40625 3.84375,-6.5 4.640625,-6.5 c 0.234375,0 0.3125,0 0.3125,-0.1875 0,-0.125 -0.109375,-0.125 -0.140625,-0.125 -0.296875,0 -1.03125,0.03125 -1.328125,0.03125 -0.296875,0 -1.015625,-0.03125 -1.328125,-0.03125 -0.0625,0 -0.1875,0 -0.1875,0.203125 C 1.96875,-6.5 2.046875,-6.5 2.25,-6.5 c 0.40625,0 0.6875,0 0.6875,0.1875 0,0.046875 0,0.078125 -0.03125,0.15625 l -1.34375,5.375 c -0.09375,0.375 -0.109375,0.46875 -0.90625,0.46875 -0.234375,0 -0.3125,0 -0.3125,0.203125 C 0.34375,0 0.453125,0 0.484375,0 0.78125,0 1.5,-0.03125 1.796875,-0.03125 2.09375,-0.03125 2.828125,0 3.125,0 c 0.078125,0 0.203125,0 0.203125,-0.1875 0,-0.125 -0.078125,-0.125 -0.296875,-0.125 -0.1875,0 -0.234375,0 -0.421875,-0.015625 -0.21875,-0.015625 -0.25,-0.0625 -0.25,-0.171875 0,-0.078125 0.015625,-0.15625 0.03125,-0.234375 z m 0,0"
             transform="translate(148.712,134.765)"
             id="path3752" />
        </g>
        <g
           style="fill:#000000;fill-opacity:1"
           id="g3758">
          <path
             inkscape:connector-curvature="0"
             style="stroke:none;stroke-width:0"
             d="m 2.328125,-4.4375 c 0,-0.1875 0,-0.1875 -0.203125,-0.1875 -0.453125,0.4375 -1.078125,0.4375 -1.359375,0.4375 v 0.25 c 0.15625,0 0.625,0 1,-0.1875 v 3.546875 c 0,0.234375 0,0.328125 -0.6875,0.328125 H 0.8125 V 0 c 0.125,0 0.984375,-0.03125 1.234375,-0.03125 0.21875,0 1.09375,0.03125 1.25,0.03125 V -0.25 H 3.03125 c -0.703125,0 -0.703125,-0.09375 -0.703125,-0.328125 z m 0,0"
             transform="translate(153.092,136.259)"
             id="path3756" />
        </g>
      </g>
    </g>
    <g
       id="g4081"
       ns1:jacobian_sqrt="0.790222"
       inkscapeversion="0.92.2"
       ns1:alignment="middle center"
       ns1:scale="2.2400000105"
       ns1:preamble="C:\\Users\\kevin\\AppData\\Roaming\\inkscape\\extensions\\default_packages.tex"
       ns1:text="$I_2$"
       ns1:pdfconverter="pdf2svg"
       ns1:texconverter="pdflatex"
       ns1:version="0.8.1"
       transform="matrix(0.790222,0,0,0.790222,-45.519867,-1.3989235)">
      <g
         id="g4079">
        <g
           id="g4073"
           style="fill:#000000;fill-opacity:1">
          <path
             id="path4071"
             transform="translate(148.712,134.765)"
             d="M 3.734375,-6.046875 C 3.8125,-6.40625 3.84375,-6.5 4.640625,-6.5 c 0.234375,0 0.3125,0 0.3125,-0.1875 0,-0.125 -0.109375,-0.125 -0.140625,-0.125 -0.296875,0 -1.03125,0.03125 -1.328125,0.03125 -0.296875,0 -1.015625,-0.03125 -1.328125,-0.03125 -0.0625,0 -0.1875,0 -0.1875,0.203125 C 1.96875,-6.5 2.046875,-6.5 2.25,-6.5 c 0.40625,0 0.6875,0 0.6875,0.1875 0,0.046875 0,0.078125 -0.03125,0.15625 l -1.34375,5.375 c -0.09375,0.375 -0.109375,0.46875 -0.90625,0.46875 -0.234375,0 -0.3125,0 -0.3125,0.203125 C 0.34375,0 0.453125,0 0.484375,0 0.78125,0 1.5,-0.03125 1.796875,-0.03125 2.09375,-0.03125 2.828125,0 3.125,0 c 0.078125,0 0.203125,0 0.203125,-0.1875 0,-0.125 -0.078125,-0.125 -0.296875,-0.125 -0.1875,0 -0.234375,0 -0.421875,-0.015625 -0.21875,-0.015625 -0.25,-0.0625 -0.25,-0.171875 0,-0.078125 0.015625,-0.15625 0.03125,-0.234375 z m 0,0"
             style="stroke:none;stroke-width:0"
             inkscape:connector-curvature="0" />
        </g>
        <g
           id="g4077"
           style="fill:#000000;fill-opacity:1">
          <path
             id="path4075"
             transform="translate(153.092,136.259)"
             d="M 3.515625,-1.265625 H 3.28125 c -0.015625,0.15625 -0.09375,0.5625 -0.1875,0.625 C 3.046875,-0.59375 2.515625,-0.59375 2.40625,-0.59375 H 1.125 c 0.734375,-0.640625 0.984375,-0.84375 1.390625,-1.171875 0.515625,-0.40625 1,-0.84375 1,-1.5 0,-0.84375 -0.734375,-1.359375 -1.625,-1.359375 -0.859375,0 -1.453125,0.609375 -1.453125,1.25 0,0.34375 0.296875,0.390625 0.375,0.390625 0.15625,0 0.359375,-0.125 0.359375,-0.375 0,-0.125 -0.046875,-0.375 -0.40625,-0.375 C 0.984375,-4.21875 1.453125,-4.375 1.78125,-4.375 c 0.703125,0 1.0625,0.546875 1.0625,1.109375 0,0.609375 -0.4375,1.078125 -0.65625,1.328125 L 0.515625,-0.265625 C 0.4375,-0.203125 0.4375,-0.1875 0.4375,0 h 2.875 z m 0,0"
             style="stroke:none;stroke-width:0"
             inkscape:connector-curvature="0" />
        </g>
      </g>
    </g>
  </g>
</svg>
